<mxfile host="app.diagrams.net" agent="Mozilla/5.0 (X11; Ubuntu; Linux x86_64; rv:141.0) Gecko/20100101 Firefox/141.0" version="28.0.7" pages="10">
  <diagram id="o8VDRe50vAT0evo7GQXG" name="BlockManagement">
    <mxGraphModel dx="2208" dy="1294" grid="0" gridSize="10" guides="1" tooltips="1" connect="1" arrows="1" fold="1" page="0" pageScale="1" pageWidth="850" pageHeight="1100" math="0" shadow="0">
      <root>
        <mxCell id="0" />
        <mxCell id="1" parent="0" />
        <mxCell id="XNs9a5o6jstJwODdz3G9-22" value="" style="edgeStyle=none;curved=1;rounded=0;orthogonalLoop=1;jettySize=auto;html=1;fontSize=12;startSize=8;endSize=8;strokeWidth=3;" parent="1" source="XNs9a5o6jstJwODdz3G9-1" target="XNs9a5o6jstJwODdz3G9-3" edge="1">
          <mxGeometry relative="1" as="geometry" />
        </mxCell>
        <mxCell id="XNs9a5o6jstJwODdz3G9-1" value="&lt;span&gt;&lt;font&gt;Start&lt;/font&gt;&lt;/span&gt;" style="strokeWidth=3;html=1;shape=mxgraph.flowchart.terminator;whiteSpace=wrap;fontSize=14;fontStyle=1" parent="1" vertex="1">
          <mxGeometry x="-558" y="-17" width="100" height="38" as="geometry" />
        </mxCell>
        <mxCell id="XNs9a5o6jstJwODdz3G9-2" value="&lt;span&gt;End&lt;/span&gt;" style="strokeWidth=3;html=1;shape=mxgraph.flowchart.terminator;whiteSpace=wrap;fontSize=14;fontStyle=1" parent="1" vertex="1">
          <mxGeometry x="862" y="-16" width="73" height="35" as="geometry" />
        </mxCell>
        <mxCell id="XNs9a5o6jstJwODdz3G9-19" style="edgeStyle=none;curved=1;rounded=0;orthogonalLoop=1;jettySize=auto;html=1;entryX=0;entryY=0.5;entryDx=0;entryDy=0;fontSize=12;startSize=8;endSize=8;strokeWidth=3;" parent="1" source="XNs9a5o6jstJwODdz3G9-3" target="XNs9a5o6jstJwODdz3G9-7" edge="1">
          <mxGeometry relative="1" as="geometry" />
        </mxCell>
        <mxCell id="XNs9a5o6jstJwODdz3G9-3" value="Define Block" style="rounded=1;whiteSpace=wrap;html=1;fontSize=14;fontStyle=1;strokeWidth=3;" parent="1" vertex="1">
          <mxGeometry x="-415" y="-22" width="114" height="52" as="geometry" />
        </mxCell>
        <mxCell id="XNs9a5o6jstJwODdz3G9-20" value="" style="edgeStyle=none;curved=1;rounded=0;orthogonalLoop=1;jettySize=auto;html=1;fontSize=12;startSize=8;endSize=8;strokeWidth=3;entryX=0;entryY=0.5;entryDx=0;entryDy=0;" parent="1" source="XNs9a5o6jstJwODdz3G9-7" target="rxJcyZDcvklytrJGK6Bx-1" edge="1">
          <mxGeometry relative="1" as="geometry" />
        </mxCell>
        <mxCell id="XNs9a5o6jstJwODdz3G9-7" value="Grade Blocks" style="rounded=1;whiteSpace=wrap;html=1;fontSize=14;fontStyle=1;strokeWidth=3;" parent="1" vertex="1">
          <mxGeometry x="-253" y="-22" width="114" height="52" as="geometry" />
        </mxCell>
        <mxCell id="XNs9a5o6jstJwODdz3G9-21" value="" style="edgeStyle=none;curved=1;rounded=0;orthogonalLoop=1;jettySize=auto;html=1;fontSize=12;startSize=8;endSize=8;strokeWidth=3;entryX=0.5;entryY=0;entryDx=0;entryDy=0;" parent="1" source="XNs9a5o6jstJwODdz3G9-8" target="rxJcyZDcvklytrJGK6Bx-1" edge="1">
          <mxGeometry relative="1" as="geometry" />
        </mxCell>
        <mxCell id="XNs9a5o6jstJwODdz3G9-8" value="Auction" style="shape=process;whiteSpace=wrap;html=1;backgroundOutline=1;fontSize=14;fontStyle=1;strokeWidth=3;" parent="1" vertex="1">
          <mxGeometry x="-97" y="-155" width="120" height="60" as="geometry" />
        </mxCell>
        <mxCell id="XNs9a5o6jstJwODdz3G9-11" value="" style="edgeStyle=none;curved=1;rounded=0;orthogonalLoop=1;jettySize=auto;html=1;fontSize=14;startSize=8;endSize=8;fontStyle=1;strokeWidth=3;exitX=1;exitY=0.5;exitDx=0;exitDy=0;entryX=0;entryY=0.5;entryDx=0;entryDy=0;" parent="1" source="XNs9a5o6jstJwODdz3G9-9" target="rxJcyZDcvklytrJGK6Bx-5" edge="1">
          <mxGeometry relative="1" as="geometry" />
        </mxCell>
        <mxCell id="XNs9a5o6jstJwODdz3G9-14" value="YES" style="edgeLabel;html=1;align=center;verticalAlign=middle;resizable=0;points=[];fontSize=14;fontStyle=1" parent="XNs9a5o6jstJwODdz3G9-11" vertex="1" connectable="0">
          <mxGeometry x="-0.2836" y="-1" relative="1" as="geometry">
            <mxPoint as="offset" />
          </mxGeometry>
        </mxCell>
        <mxCell id="rxJcyZDcvklytrJGK6Bx-11" value="" style="edgeStyle=orthogonalEdgeStyle;rounded=0;orthogonalLoop=1;jettySize=auto;html=1;entryX=0.5;entryY=0;entryDx=0;entryDy=0;entryPerimeter=0;strokeWidth=3;" edge="1" parent="1" source="XNs9a5o6jstJwODdz3G9-9" target="XNs9a5o6jstJwODdz3G9-2">
          <mxGeometry relative="1" as="geometry">
            <mxPoint x="244" y="-138" as="targetPoint" />
            <Array as="points">
              <mxPoint x="244" y="-77" />
              <mxPoint x="899" y="-77" />
            </Array>
          </mxGeometry>
        </mxCell>
        <mxCell id="rxJcyZDcvklytrJGK6Bx-12" value="&lt;b&gt;NO&lt;/b&gt;" style="edgeLabel;html=1;align=center;verticalAlign=middle;resizable=0;points=[];" vertex="1" connectable="0" parent="rxJcyZDcvklytrJGK6Bx-11">
          <mxGeometry x="-0.6909" y="-3" relative="1" as="geometry">
            <mxPoint as="offset" />
          </mxGeometry>
        </mxCell>
        <mxCell id="XNs9a5o6jstJwODdz3G9-9" value="Is Transfer?" style="rhombus;whiteSpace=wrap;html=1;fontSize=14;fontStyle=1;strokeWidth=3;" parent="1" vertex="1">
          <mxGeometry x="194" y="-42" width="100" height="92" as="geometry" />
        </mxCell>
        <mxCell id="XNs9a5o6jstJwODdz3G9-17" value="" style="edgeStyle=none;curved=1;rounded=0;orthogonalLoop=1;jettySize=auto;html=1;fontSize=14;startSize=8;endSize=8;fontStyle=1;strokeWidth=3;entryX=0;entryY=0.5;entryDx=0;entryDy=0;exitX=1;exitY=0.5;exitDx=0;exitDy=0;" parent="1" target="XNs9a5o6jstJwODdz3G9-16" edge="1" source="rxJcyZDcvklytrJGK6Bx-7">
          <mxGeometry relative="1" as="geometry">
            <mxPoint x="629" y="4" as="sourcePoint" />
            <mxPoint x="709" y="4" as="targetPoint" />
          </mxGeometry>
        </mxCell>
        <mxCell id="rxJcyZDcvklytrJGK6Bx-9" value="&lt;b&gt;YES&lt;/b&gt;" style="edgeLabel;html=1;align=center;verticalAlign=middle;resizable=0;points=[];" vertex="1" connectable="0" parent="XNs9a5o6jstJwODdz3G9-17">
          <mxGeometry x="-0.1667" relative="1" as="geometry">
            <mxPoint as="offset" />
          </mxGeometry>
        </mxCell>
        <mxCell id="XNs9a5o6jstJwODdz3G9-16" value="Re-Assign Block" style="whiteSpace=wrap;html=1;fontSize=14;fontStyle=1;strokeWidth=3;" parent="1" vertex="1">
          <mxGeometry x="681" y="-26" width="120" height="60" as="geometry" />
        </mxCell>
        <mxCell id="bC_K1pf8ZOpX1Q2r9_G9-6" value="" style="edgeStyle=none;curved=1;rounded=0;orthogonalLoop=1;jettySize=auto;html=1;fontSize=12;startSize=8;endSize=8;fontStyle=1;strokeWidth=3;exitX=1;exitY=0.5;exitDx=0;exitDy=0;entryX=0;entryY=0.5;entryDx=0;entryDy=0;entryPerimeter=0;" parent="1" source="XNs9a5o6jstJwODdz3G9-16" target="XNs9a5o6jstJwODdz3G9-2" edge="1">
          <mxGeometry relative="1" as="geometry">
            <mxPoint x="826" y="3.1569965870307897" as="sourcePoint" />
            <mxPoint x="876" y="1.6211604095562961" as="targetPoint" />
          </mxGeometry>
        </mxCell>
        <mxCell id="rxJcyZDcvklytrJGK6Bx-3" value="" style="edgeStyle=orthogonalEdgeStyle;rounded=0;orthogonalLoop=1;jettySize=auto;html=1;strokeWidth=3;" edge="1" parent="1" source="rxJcyZDcvklytrJGK6Bx-1" target="rxJcyZDcvklytrJGK6Bx-2">
          <mxGeometry relative="1" as="geometry" />
        </mxCell>
        <mxCell id="rxJcyZDcvklytrJGK6Bx-1" value="Assign Block" style="whiteSpace=wrap;html=1;fontSize=14;fontStyle=1;strokeWidth=3;" vertex="1" parent="1">
          <mxGeometry x="-97" y="-26" width="120" height="60" as="geometry" />
        </mxCell>
        <mxCell id="rxJcyZDcvklytrJGK6Bx-4" value="" style="edgeStyle=orthogonalEdgeStyle;rounded=0;orthogonalLoop=1;jettySize=auto;html=1;strokeWidth=3;" edge="1" parent="1" source="rxJcyZDcvklytrJGK6Bx-2" target="XNs9a5o6jstJwODdz3G9-9">
          <mxGeometry relative="1" as="geometry" />
        </mxCell>
        <mxCell id="rxJcyZDcvklytrJGK6Bx-2" value="Payment" style="whiteSpace=wrap;html=1;fontSize=14;fontStyle=1;strokeWidth=3;" vertex="1" parent="1">
          <mxGeometry x="62" y="-26" width="89" height="60" as="geometry" />
        </mxCell>
        <mxCell id="rxJcyZDcvklytrJGK6Bx-8" value="" style="edgeStyle=orthogonalEdgeStyle;rounded=0;orthogonalLoop=1;jettySize=auto;html=1;strokeWidth=3;" edge="1" parent="1" source="rxJcyZDcvklytrJGK6Bx-5" target="rxJcyZDcvklytrJGK6Bx-7">
          <mxGeometry relative="1" as="geometry" />
        </mxCell>
        <mxCell id="rxJcyZDcvklytrJGK6Bx-5" value="Verify Transfer" style="whiteSpace=wrap;html=1;fontSize=14;fontStyle=1;strokeWidth=3;" vertex="1" parent="1">
          <mxGeometry x="362" y="-26" width="120" height="60" as="geometry" />
        </mxCell>
        <mxCell id="rxJcyZDcvklytrJGK6Bx-14" value="" style="edgeStyle=orthogonalEdgeStyle;rounded=0;orthogonalLoop=1;jettySize=auto;html=1;entryX=0.5;entryY=1;entryDx=0;entryDy=0;entryPerimeter=0;exitX=0.5;exitY=1;exitDx=0;exitDy=0;strokeWidth=3;" edge="1" parent="1" source="rxJcyZDcvklytrJGK6Bx-7" target="XNs9a5o6jstJwODdz3G9-2">
          <mxGeometry relative="1" as="geometry">
            <mxPoint x="569" y="146" as="targetPoint" />
            <Array as="points">
              <mxPoint x="569" y="86" />
              <mxPoint x="899" y="86" />
            </Array>
          </mxGeometry>
        </mxCell>
        <mxCell id="rxJcyZDcvklytrJGK6Bx-15" value="&lt;b&gt;NO&lt;/b&gt;" style="edgeLabel;html=1;align=center;verticalAlign=middle;resizable=0;points=[];" vertex="1" connectable="0" parent="rxJcyZDcvklytrJGK6Bx-14">
          <mxGeometry x="-0.5607" y="-2" relative="1" as="geometry">
            <mxPoint as="offset" />
          </mxGeometry>
        </mxCell>
        <mxCell id="rxJcyZDcvklytrJGK6Bx-7" value="Verified?" style="rhombus;whiteSpace=wrap;html=1;fontSize=14;fontStyle=1;strokeWidth=3;" vertex="1" parent="1">
          <mxGeometry x="519" y="-42" width="100" height="92" as="geometry" />
        </mxCell>
      </root>
    </mxGraphModel>
  </diagram>
  <diagram name="QuotaManagement" id="KiZcu98RXCVor-IMkY5d">
    <mxGraphModel dx="2208" dy="1294" grid="0" gridSize="10" guides="1" tooltips="1" connect="1" arrows="1" fold="1" page="0" pageScale="1" pageWidth="850" pageHeight="1100" math="0" shadow="0">
      <root>
        <mxCell id="swmsCML5HJa2df1Sol6c-0" />
        <mxCell id="swmsCML5HJa2df1Sol6c-1" parent="swmsCML5HJa2df1Sol6c-0" />
        <mxCell id="swmsCML5HJa2df1Sol6c-2" value="" style="edgeStyle=none;curved=1;rounded=0;orthogonalLoop=1;jettySize=auto;html=1;fontSize=12;startSize=8;endSize=8;strokeWidth=3;entryX=0;entryY=0.5;entryDx=0;entryDy=0;" parent="swmsCML5HJa2df1Sol6c-1" source="swmsCML5HJa2df1Sol6c-3" target="swmsCML5HJa2df1Sol6c-6" edge="1">
          <mxGeometry relative="1" as="geometry">
            <mxPoint x="-415" y="2" as="targetPoint" />
          </mxGeometry>
        </mxCell>
        <mxCell id="swmsCML5HJa2df1Sol6c-3" value="&lt;span&gt;&lt;font&gt;Start&lt;/font&gt;&lt;/span&gt;" style="strokeWidth=3;html=1;shape=mxgraph.flowchart.terminator;whiteSpace=wrap;fontSize=14;fontStyle=1" parent="swmsCML5HJa2df1Sol6c-1" vertex="1">
          <mxGeometry x="-558" y="-17" width="100" height="38" as="geometry" />
        </mxCell>
        <mxCell id="swmsCML5HJa2df1Sol6c-4" value="&lt;span&gt;End&lt;/span&gt;" style="strokeWidth=3;html=1;shape=mxgraph.flowchart.terminator;whiteSpace=wrap;fontSize=14;fontStyle=1" parent="swmsCML5HJa2df1Sol6c-1" vertex="1">
          <mxGeometry x="553" y="-15.5" width="73" height="35" as="geometry" />
        </mxCell>
        <mxCell id="swmsCML5HJa2df1Sol6c-5" style="edgeStyle=none;curved=1;rounded=0;orthogonalLoop=1;jettySize=auto;html=1;entryX=0;entryY=0.5;entryDx=0;entryDy=0;fontSize=12;startSize=8;endSize=8;strokeWidth=3;" parent="swmsCML5HJa2df1Sol6c-1" source="swmsCML5HJa2df1Sol6c-6" target="swmsCML5HJa2df1Sol6c-10" edge="1">
          <mxGeometry relative="1" as="geometry" />
        </mxCell>
        <mxCell id="swmsCML5HJa2df1Sol6c-6" value="Define Quota" style="rounded=1;whiteSpace=wrap;html=1;fontSize=14;fontStyle=1;strokeWidth=3;" parent="swmsCML5HJa2df1Sol6c-1" vertex="1">
          <mxGeometry x="-420" y="-24" width="114" height="52" as="geometry" />
        </mxCell>
        <mxCell id="swmsCML5HJa2df1Sol6c-9" value="" style="edgeStyle=none;curved=1;rounded=0;orthogonalLoop=1;jettySize=auto;html=1;fontSize=12;startSize=8;endSize=8;strokeWidth=3;entryX=0;entryY=0.5;entryDx=0;entryDy=0;" parent="swmsCML5HJa2df1Sol6c-1" source="swmsCML5HJa2df1Sol6c-10" target="5WASOlV9vsPOAnlsM52p-0" edge="1">
          <mxGeometry relative="1" as="geometry">
            <mxPoint x="-22" y="2" as="targetPoint" />
          </mxGeometry>
        </mxCell>
        <mxCell id="swmsCML5HJa2df1Sol6c-10" value="Receive Client Request" style="rounded=1;whiteSpace=wrap;html=1;fontSize=14;fontStyle=1;strokeWidth=3;" parent="swmsCML5HJa2df1Sol6c-1" vertex="1">
          <mxGeometry x="-257" y="-24" width="128" height="52" as="geometry" />
        </mxCell>
        <mxCell id="swmsCML5HJa2df1Sol6c-13" value="" style="edgeStyle=none;curved=1;rounded=0;orthogonalLoop=1;jettySize=auto;html=1;fontSize=14;startSize=8;endSize=8;fontStyle=1;strokeWidth=3;entryX=0;entryY=0.5;entryDx=0;entryDy=0;" parent="swmsCML5HJa2df1Sol6c-1" source="swmsCML5HJa2df1Sol6c-15" target="5WASOlV9vsPOAnlsM52p-1" edge="1">
          <mxGeometry relative="1" as="geometry">
            <mxPoint x="371" y="2" as="targetPoint" />
          </mxGeometry>
        </mxCell>
        <mxCell id="swmsCML5HJa2df1Sol6c-14" value="YES" style="edgeLabel;html=1;align=center;verticalAlign=middle;resizable=0;points=[];fontSize=14;fontStyle=1" parent="swmsCML5HJa2df1Sol6c-13" vertex="1" connectable="0">
          <mxGeometry x="-0.2836" y="-1" relative="1" as="geometry">
            <mxPoint as="offset" />
          </mxGeometry>
        </mxCell>
        <mxCell id="swmsCML5HJa2df1Sol6c-15" value="Species Utilized?" style="rhombus;whiteSpace=wrap;html=1;fontSize=14;fontStyle=1;strokeWidth=3;" parent="swmsCML5HJa2df1Sol6c-1" vertex="1">
          <mxGeometry x="199" y="-49" width="100" height="101" as="geometry" />
        </mxCell>
        <mxCell id="swmsCML5HJa2df1Sol6c-16" value="" style="edgeStyle=none;curved=1;rounded=0;orthogonalLoop=1;jettySize=auto;html=1;fontSize=14;startSize=8;endSize=8;fontStyle=1;strokeWidth=3;entryX=0;entryY=0.5;entryDx=0;entryDy=0;entryPerimeter=0;exitX=1;exitY=0.5;exitDx=0;exitDy=0;" parent="swmsCML5HJa2df1Sol6c-1" target="swmsCML5HJa2df1Sol6c-4" edge="1" source="5WASOlV9vsPOAnlsM52p-1">
          <mxGeometry relative="1" as="geometry">
            <mxPoint x="572" y="2" as="sourcePoint" />
            <mxPoint x="646" y="2" as="targetPoint" />
          </mxGeometry>
        </mxCell>
        <mxCell id="5WASOlV9vsPOAnlsM52p-6" value="&lt;b&gt;YES&lt;/b&gt;" style="edgeLabel;html=1;align=center;verticalAlign=middle;resizable=0;points=[];" vertex="1" connectable="0" parent="swmsCML5HJa2df1Sol6c-16">
          <mxGeometry x="-0.0105" y="-2" relative="1" as="geometry">
            <mxPoint as="offset" />
          </mxGeometry>
        </mxCell>
        <mxCell id="QpAu56bhHE_dWi4KMhe4-6" value="" style="edgeStyle=none;curved=1;rounded=0;orthogonalLoop=1;jettySize=auto;html=1;fontSize=12;startSize=8;endSize=8;strokeWidth=3;exitX=1;exitY=0.5;exitDx=0;exitDy=0;" parent="swmsCML5HJa2df1Sol6c-1" source="5WASOlV9vsPOAnlsM52p-3" target="swmsCML5HJa2df1Sol6c-15" edge="1">
          <mxGeometry relative="1" as="geometry">
            <mxPoint x="233" y="3.295597484276641" as="sourcePoint" />
          </mxGeometry>
        </mxCell>
        <mxCell id="5WASOlV9vsPOAnlsM52p-4" value="" style="edgeStyle=orthogonalEdgeStyle;rounded=0;orthogonalLoop=1;jettySize=auto;html=1;strokeWidth=3;" edge="1" parent="swmsCML5HJa2df1Sol6c-1" source="5WASOlV9vsPOAnlsM52p-0" target="5WASOlV9vsPOAnlsM52p-3">
          <mxGeometry relative="1" as="geometry" />
        </mxCell>
        <mxCell id="5WASOlV9vsPOAnlsM52p-5" value="&lt;b&gt;YES&lt;/b&gt;" style="edgeLabel;html=1;align=center;verticalAlign=middle;resizable=0;points=[];" vertex="1" connectable="0" parent="5WASOlV9vsPOAnlsM52p-4">
          <mxGeometry x="-0.16" y="1" relative="1" as="geometry">
            <mxPoint as="offset" />
          </mxGeometry>
        </mxCell>
        <mxCell id="5WASOlV9vsPOAnlsM52p-14" value="" style="edgeStyle=orthogonalEdgeStyle;rounded=0;orthogonalLoop=1;jettySize=auto;html=1;strokeWidth=3;entryX=0.5;entryY=0;entryDx=0;entryDy=0;entryPerimeter=0;" edge="1" parent="swmsCML5HJa2df1Sol6c-1" source="5WASOlV9vsPOAnlsM52p-0" target="swmsCML5HJa2df1Sol6c-4">
          <mxGeometry relative="1" as="geometry">
            <mxPoint x="-41.5" y="-153" as="targetPoint" />
            <Array as="points">
              <mxPoint x="-41" y="-94" />
              <mxPoint x="590" y="-94" />
            </Array>
          </mxGeometry>
        </mxCell>
        <mxCell id="5WASOlV9vsPOAnlsM52p-15" value="&lt;font style=&quot;font-size: 13px;&quot;&gt;&lt;b&gt;NO&lt;/b&gt;&lt;/font&gt;" style="edgeLabel;html=1;align=center;verticalAlign=middle;resizable=0;points=[];" vertex="1" connectable="0" parent="5WASOlV9vsPOAnlsM52p-14">
          <mxGeometry x="-0.7238" y="-1" relative="1" as="geometry">
            <mxPoint as="offset" />
          </mxGeometry>
        </mxCell>
        <mxCell id="5WASOlV9vsPOAnlsM52p-0" value="Quota Available?" style="rhombus;whiteSpace=wrap;html=1;fontSize=14;fontStyle=1;strokeWidth=3;" vertex="1" parent="swmsCML5HJa2df1Sol6c-1">
          <mxGeometry x="-92" y="-50.5" width="101" height="105" as="geometry" />
        </mxCell>
        <mxCell id="5WASOlV9vsPOAnlsM52p-9" value="" style="edgeStyle=orthogonalEdgeStyle;rounded=0;orthogonalLoop=1;jettySize=auto;html=1;strokeWidth=3;entryX=1;entryY=0.5;entryDx=0;entryDy=0;" edge="1" parent="swmsCML5HJa2df1Sol6c-1" source="5WASOlV9vsPOAnlsM52p-1" target="5WASOlV9vsPOAnlsM52p-7">
          <mxGeometry relative="1" as="geometry" />
        </mxCell>
        <mxCell id="5WASOlV9vsPOAnlsM52p-12" value="&lt;b&gt;NO&lt;/b&gt;" style="edgeLabel;html=1;align=center;verticalAlign=middle;resizable=0;points=[];" vertex="1" connectable="0" parent="5WASOlV9vsPOAnlsM52p-9">
          <mxGeometry x="-0.4927" relative="1" as="geometry">
            <mxPoint as="offset" />
          </mxGeometry>
        </mxCell>
        <mxCell id="5WASOlV9vsPOAnlsM52p-1" value="Quota Utilized?" style="rhombus;whiteSpace=wrap;html=1;fontSize=14;fontStyle=1;strokeWidth=3;" vertex="1" parent="swmsCML5HJa2df1Sol6c-1">
          <mxGeometry x="373" y="-46" width="103" height="95" as="geometry" />
        </mxCell>
        <mxCell id="5WASOlV9vsPOAnlsM52p-3" value="Quota Allocation" style="whiteSpace=wrap;html=1;fontSize=14;fontStyle=1;strokeWidth=3;" vertex="1" parent="swmsCML5HJa2df1Sol6c-1">
          <mxGeometry x="69" y="-28" width="84" height="60" as="geometry" />
        </mxCell>
        <mxCell id="5WASOlV9vsPOAnlsM52p-7" value="Bill Under Utilization Fee" style="rounded=1;whiteSpace=wrap;html=1;fontSize=14;fontStyle=1;strokeWidth=3;" vertex="1" parent="swmsCML5HJa2df1Sol6c-1">
          <mxGeometry x="277" y="105" width="128" height="52" as="geometry" />
        </mxCell>
        <mxCell id="5WASOlV9vsPOAnlsM52p-10" value="" style="edgeStyle=orthogonalEdgeStyle;rounded=0;orthogonalLoop=1;jettySize=auto;html=1;strokeWidth=3;entryX=0;entryY=0.5;entryDx=0;entryDy=0;exitX=0.5;exitY=1;exitDx=0;exitDy=0;" edge="1" parent="swmsCML5HJa2df1Sol6c-1" source="swmsCML5HJa2df1Sol6c-15" target="5WASOlV9vsPOAnlsM52p-7">
          <mxGeometry relative="1" as="geometry">
            <mxPoint x="259.5" y="77" as="sourcePoint" />
            <mxPoint x="254.5" y="187" as="targetPoint" />
          </mxGeometry>
        </mxCell>
        <mxCell id="5WASOlV9vsPOAnlsM52p-11" value="&lt;b&gt;NO&lt;/b&gt;" style="edgeLabel;html=1;align=center;verticalAlign=middle;resizable=0;points=[];" vertex="1" connectable="0" parent="5WASOlV9vsPOAnlsM52p-10">
          <mxGeometry x="-0.5327" y="-1" relative="1" as="geometry">
            <mxPoint as="offset" />
          </mxGeometry>
        </mxCell>
      </root>
    </mxGraphModel>
  </diagram>
  <diagram name="PHLicencing" id="isD4XnIpkaDu3AuO83Xx">
    <mxGraphModel dx="2208" dy="1294" grid="0" gridSize="10" guides="1" tooltips="1" connect="1" arrows="1" fold="1" page="0" pageScale="1" pageWidth="850" pageHeight="1100" math="0" shadow="0">
      <root>
        <mxCell id="gn8j9FhQrk8Oq70H1IYA-0" />
        <mxCell id="gn8j9FhQrk8Oq70H1IYA-1" parent="gn8j9FhQrk8Oq70H1IYA-0" />
        <mxCell id="gn8j9FhQrk8Oq70H1IYA-2" value="" style="edgeStyle=none;curved=1;rounded=0;orthogonalLoop=1;jettySize=auto;html=1;fontSize=12;startSize=8;endSize=8;strokeWidth=3;" parent="gn8j9FhQrk8Oq70H1IYA-1" source="gn8j9FhQrk8Oq70H1IYA-3" target="gn8j9FhQrk8Oq70H1IYA-6" edge="1">
          <mxGeometry relative="1" as="geometry" />
        </mxCell>
        <mxCell id="gn8j9FhQrk8Oq70H1IYA-3" value="&lt;span&gt;&lt;font&gt;Start&lt;/font&gt;&lt;/span&gt;" style="strokeWidth=3;html=1;shape=mxgraph.flowchart.terminator;whiteSpace=wrap;fontSize=14;fontStyle=1" parent="gn8j9FhQrk8Oq70H1IYA-1" vertex="1">
          <mxGeometry x="-558" y="-17" width="100" height="38" as="geometry" />
        </mxCell>
        <mxCell id="gn8j9FhQrk8Oq70H1IYA-4" value="&lt;span&gt;End&lt;/span&gt;" style="strokeWidth=3;html=1;shape=mxgraph.flowchart.terminator;whiteSpace=wrap;fontSize=14;fontStyle=1" parent="gn8j9FhQrk8Oq70H1IYA-1" vertex="1">
          <mxGeometry x="572" y="-15" width="100" height="38" as="geometry" />
        </mxCell>
        <mxCell id="jxyXqsxjv7e7rPtV_4Qg-1" value="" style="edgeStyle=none;curved=1;rounded=0;orthogonalLoop=1;jettySize=auto;html=1;fontSize=12;startSize=8;endSize=8;entryX=0;entryY=0.5;entryDx=0;entryDy=0;strokeWidth=3;" parent="gn8j9FhQrk8Oq70H1IYA-1" source="gn8j9FhQrk8Oq70H1IYA-6" target="oZKW10DsFwDnFB3hkcTx-1" edge="1">
          <mxGeometry relative="1" as="geometry">
            <mxPoint x="-210" y="4" as="targetPoint" />
          </mxGeometry>
        </mxCell>
        <mxCell id="gn8j9FhQrk8Oq70H1IYA-6" value="Apply Licence" style="rounded=1;whiteSpace=wrap;html=1;fontSize=14;fontStyle=1;strokeWidth=3;" parent="gn8j9FhQrk8Oq70H1IYA-1" vertex="1">
          <mxGeometry x="-413" y="-22" width="114" height="52" as="geometry" />
        </mxCell>
        <mxCell id="jxyXqsxjv7e7rPtV_4Qg-3" value="" style="edgeStyle=none;curved=1;rounded=0;orthogonalLoop=1;jettySize=auto;html=1;fontSize=12;startSize=8;endSize=8;strokeWidth=3;" parent="gn8j9FhQrk8Oq70H1IYA-1" source="oZKW10DsFwDnFB3hkcTx-1" target="jxyXqsxjv7e7rPtV_4Qg-2" edge="1">
          <mxGeometry relative="1" as="geometry">
            <mxPoint x="-90" y="4" as="sourcePoint" />
          </mxGeometry>
        </mxCell>
        <mxCell id="oZKW10DsFwDnFB3hkcTx-2" value="&lt;b&gt;&lt;font style=&quot;font-size: 13px;&quot;&gt;YES&lt;/font&gt;&lt;/b&gt;" style="edgeLabel;html=1;align=center;verticalAlign=middle;resizable=0;points=[];" vertex="1" connectable="0" parent="jxyXqsxjv7e7rPtV_4Qg-3">
          <mxGeometry x="-0.3402" relative="1" as="geometry">
            <mxPoint as="offset" />
          </mxGeometry>
        </mxCell>
        <mxCell id="gn8j9FhQrk8Oq70H1IYA-13" value="" style="edgeStyle=none;curved=1;rounded=0;orthogonalLoop=1;jettySize=auto;html=1;fontSize=14;startSize=8;endSize=8;fontStyle=1;strokeWidth=3;exitX=0.5;exitY=1;exitDx=0;exitDy=0;entryX=0.5;entryY=0;entryDx=0;entryDy=0;" parent="gn8j9FhQrk8Oq70H1IYA-1" target="oZKW10DsFwDnFB3hkcTx-3" edge="1" source="oZKW10DsFwDnFB3hkcTx-1">
          <mxGeometry relative="1" as="geometry">
            <mxPoint x="231" y="4" as="sourcePoint" />
            <mxPoint x="298" y="4" as="targetPoint" />
          </mxGeometry>
        </mxCell>
        <mxCell id="gn8j9FhQrk8Oq70H1IYA-14" value="NO" style="edgeLabel;html=1;align=center;verticalAlign=middle;resizable=0;points=[];fontSize=14;fontStyle=1" parent="gn8j9FhQrk8Oq70H1IYA-13" vertex="1" connectable="0">
          <mxGeometry x="-0.2836" y="-1" relative="1" as="geometry">
            <mxPoint as="offset" />
          </mxGeometry>
        </mxCell>
        <mxCell id="oZKW10DsFwDnFB3hkcTx-9" value="" style="edgeStyle=orthogonalEdgeStyle;rounded=0;orthogonalLoop=1;jettySize=auto;html=1;strokeWidth=3;" edge="1" parent="gn8j9FhQrk8Oq70H1IYA-1" source="jxyXqsxjv7e7rPtV_4Qg-2" target="oZKW10DsFwDnFB3hkcTx-8">
          <mxGeometry relative="1" as="geometry" />
        </mxCell>
        <mxCell id="jxyXqsxjv7e7rPtV_4Qg-2" value="Grant Licence" style="whiteSpace=wrap;html=1;fontSize=14;fontStyle=1;strokeWidth=3;" parent="gn8j9FhQrk8Oq70H1IYA-1" vertex="1">
          <mxGeometry x="-84" y="-27" width="120" height="60" as="geometry" />
        </mxCell>
        <mxCell id="oZKW10DsFwDnFB3hkcTx-1" value="Passed Exams?" style="rhombus;whiteSpace=wrap;html=1;fontSize=14;fontStyle=1;strokeWidth=3;" vertex="1" parent="gn8j9FhQrk8Oq70H1IYA-1">
          <mxGeometry x="-245" y="-41" width="96" height="85" as="geometry" />
        </mxCell>
        <mxCell id="oZKW10DsFwDnFB3hkcTx-5" value="" style="edgeStyle=orthogonalEdgeStyle;rounded=0;orthogonalLoop=1;jettySize=auto;html=1;strokeWidth=3;" edge="1" parent="gn8j9FhQrk8Oq70H1IYA-1" source="oZKW10DsFwDnFB3hkcTx-3" target="oZKW10DsFwDnFB3hkcTx-4">
          <mxGeometry relative="1" as="geometry" />
        </mxCell>
        <mxCell id="oZKW10DsFwDnFB3hkcTx-3" value="Check Exam Schedule" style="whiteSpace=wrap;html=1;fontSize=14;fontStyle=1;strokeWidth=3;" vertex="1" parent="gn8j9FhQrk8Oq70H1IYA-1">
          <mxGeometry x="-248" y="109" width="102" height="60" as="geometry" />
        </mxCell>
        <mxCell id="oZKW10DsFwDnFB3hkcTx-7" value="" style="edgeStyle=orthogonalEdgeStyle;rounded=0;orthogonalLoop=1;jettySize=auto;html=1;strokeWidth=3;entryX=0.5;entryY=1;entryDx=0;entryDy=0;" edge="1" parent="gn8j9FhQrk8Oq70H1IYA-1" source="oZKW10DsFwDnFB3hkcTx-4" target="gn8j9FhQrk8Oq70H1IYA-6">
          <mxGeometry relative="1" as="geometry">
            <mxPoint x="-39" y="249" as="targetPoint" />
            <Array as="points">
              <mxPoint x="-39" y="204" />
              <mxPoint x="-356" y="204" />
            </Array>
          </mxGeometry>
        </mxCell>
        <mxCell id="oZKW10DsFwDnFB3hkcTx-4" value="Sit Exam" style="whiteSpace=wrap;html=1;fontSize=14;fontStyle=1;strokeWidth=3;" vertex="1" parent="gn8j9FhQrk8Oq70H1IYA-1">
          <mxGeometry x="-90" y="109" width="102" height="60" as="geometry" />
        </mxCell>
        <mxCell id="oZKW10DsFwDnFB3hkcTx-11" value="" style="edgeStyle=orthogonalEdgeStyle;rounded=0;orthogonalLoop=1;jettySize=auto;html=1;strokeWidth=3;" edge="1" parent="gn8j9FhQrk8Oq70H1IYA-1" source="oZKW10DsFwDnFB3hkcTx-8" target="oZKW10DsFwDnFB3hkcTx-10">
          <mxGeometry relative="1" as="geometry" />
        </mxCell>
        <mxCell id="oZKW10DsFwDnFB3hkcTx-8" value="Monitor Misconducts" style="whiteSpace=wrap;html=1;fontSize=14;fontStyle=1;strokeWidth=3;" vertex="1" parent="gn8j9FhQrk8Oq70H1IYA-1">
          <mxGeometry x="84" y="-27" width="120" height="60" as="geometry" />
        </mxCell>
        <mxCell id="oZKW10DsFwDnFB3hkcTx-13" value="" style="edgeStyle=orthogonalEdgeStyle;rounded=0;orthogonalLoop=1;jettySize=auto;html=1;strokeWidth=3;entryX=0;entryY=0.75;entryDx=0;entryDy=0;" edge="1" parent="gn8j9FhQrk8Oq70H1IYA-1" source="oZKW10DsFwDnFB3hkcTx-10" target="oZKW10DsFwDnFB3hkcTx-12">
          <mxGeometry relative="1" as="geometry">
            <mxPoint x="306" y="-152" as="targetPoint" />
          </mxGeometry>
        </mxCell>
        <mxCell id="oZKW10DsFwDnFB3hkcTx-14" value="&lt;b&gt;&lt;font style=&quot;font-size: 13px;&quot;&gt;YES&lt;/font&gt;&lt;/b&gt;" style="edgeLabel;html=1;align=center;verticalAlign=middle;resizable=0;points=[];" vertex="1" connectable="0" parent="oZKW10DsFwDnFB3hkcTx-13">
          <mxGeometry x="-0.2941" y="2" relative="1" as="geometry">
            <mxPoint as="offset" />
          </mxGeometry>
        </mxCell>
        <mxCell id="oZKW10DsFwDnFB3hkcTx-16" value="" style="edgeStyle=orthogonalEdgeStyle;rounded=0;orthogonalLoop=1;jettySize=auto;html=1;strokeWidth=3;" edge="1" parent="gn8j9FhQrk8Oq70H1IYA-1" source="oZKW10DsFwDnFB3hkcTx-10" target="oZKW10DsFwDnFB3hkcTx-15">
          <mxGeometry relative="1" as="geometry" />
        </mxCell>
        <mxCell id="oZKW10DsFwDnFB3hkcTx-17" value="&lt;font style=&quot;font-size: 13px;&quot;&gt;&lt;b&gt;NO&lt;/b&gt;&lt;/font&gt;" style="edgeLabel;html=1;align=center;verticalAlign=middle;resizable=0;points=[];" vertex="1" connectable="0" parent="oZKW10DsFwDnFB3hkcTx-16">
          <mxGeometry x="-0.2613" y="1" relative="1" as="geometry">
            <mxPoint y="1" as="offset" />
          </mxGeometry>
        </mxCell>
        <mxCell id="oZKW10DsFwDnFB3hkcTx-10" value="Misconduct?" style="rhombus;whiteSpace=wrap;html=1;fontSize=14;fontStyle=1;strokeWidth=3;" vertex="1" parent="gn8j9FhQrk8Oq70H1IYA-1">
          <mxGeometry x="246" y="-40" width="104" height="87" as="geometry" />
        </mxCell>
        <mxCell id="oZKW10DsFwDnFB3hkcTx-12" value="Terminate Licence" style="whiteSpace=wrap;html=1;fontSize=14;fontStyle=1;strokeWidth=3;" vertex="1" parent="gn8j9FhQrk8Oq70H1IYA-1">
          <mxGeometry x="330" y="-178" width="98" height="52" as="geometry" />
        </mxCell>
        <mxCell id="oZKW10DsFwDnFB3hkcTx-19" value="" style="edgeStyle=orthogonalEdgeStyle;rounded=0;orthogonalLoop=1;jettySize=auto;html=1;strokeWidth=3;entryX=1;entryY=0.5;entryDx=0;entryDy=0;" edge="1" parent="gn8j9FhQrk8Oq70H1IYA-1" source="oZKW10DsFwDnFB3hkcTx-15" target="oZKW10DsFwDnFB3hkcTx-12">
          <mxGeometry relative="1" as="geometry">
            <mxPoint x="461" y="-134.25" as="targetPoint" />
          </mxGeometry>
        </mxCell>
        <mxCell id="oZKW10DsFwDnFB3hkcTx-20" value="&lt;font style=&quot;font-size: 13px;&quot;&gt;&lt;b&gt;YES&lt;/b&gt;&lt;/font&gt;" style="edgeLabel;html=1;align=center;verticalAlign=middle;resizable=0;points=[];" vertex="1" connectable="0" parent="oZKW10DsFwDnFB3hkcTx-19">
          <mxGeometry x="-0.3457" relative="1" as="geometry">
            <mxPoint as="offset" />
          </mxGeometry>
        </mxCell>
        <mxCell id="oZKW10DsFwDnFB3hkcTx-21" value="" style="edgeStyle=orthogonalEdgeStyle;rounded=0;orthogonalLoop=1;jettySize=auto;html=1;strokeWidth=3;" edge="1" parent="gn8j9FhQrk8Oq70H1IYA-1" source="oZKW10DsFwDnFB3hkcTx-15" target="gn8j9FhQrk8Oq70H1IYA-4">
          <mxGeometry relative="1" as="geometry" />
        </mxCell>
        <mxCell id="oZKW10DsFwDnFB3hkcTx-22" value="&lt;font style=&quot;font-size: 13px;&quot;&gt;&lt;b&gt;NO&lt;/b&gt;&lt;/font&gt;" style="edgeLabel;html=1;align=center;verticalAlign=middle;resizable=0;points=[];" vertex="1" connectable="0" parent="oZKW10DsFwDnFB3hkcTx-21">
          <mxGeometry x="-0.236" y="-1" relative="1" as="geometry">
            <mxPoint as="offset" />
          </mxGeometry>
        </mxCell>
        <mxCell id="oZKW10DsFwDnFB3hkcTx-15" value="Is Expired?" style="rhombus;whiteSpace=wrap;html=1;fontSize=14;fontStyle=1;strokeWidth=3;" vertex="1" parent="gn8j9FhQrk8Oq70H1IYA-1">
          <mxGeometry x="410" y="-40" width="102" height="88.5" as="geometry" />
        </mxCell>
        <mxCell id="AqXrl2MrPuHZUQjnA1ng-0" value="" style="edgeStyle=orthogonalEdgeStyle;rounded=0;orthogonalLoop=1;jettySize=auto;html=1;strokeWidth=3;entryX=0.5;entryY=0;entryDx=0;entryDy=0;exitX=0;exitY=0.25;exitDx=0;exitDy=0;" edge="1" parent="gn8j9FhQrk8Oq70H1IYA-1" source="oZKW10DsFwDnFB3hkcTx-12" target="gn8j9FhQrk8Oq70H1IYA-6">
          <mxGeometry relative="1" as="geometry">
            <mxPoint x="267" y="359" as="sourcePoint" />
            <mxPoint x="-50" y="220" as="targetPoint" />
            <Array as="points">
              <mxPoint x="-356" y="-165" />
            </Array>
          </mxGeometry>
        </mxCell>
      </root>
    </mxGraphModel>
  </diagram>
  <diagram name="HuntingSafariPermitApplication" id="eQUqPby0MfiUXAKyfKSw">
    <mxGraphModel dx="2208" dy="1294" grid="0" gridSize="10" guides="1" tooltips="1" connect="1" arrows="1" fold="1" page="0" pageScale="1" pageWidth="850" pageHeight="1100" math="0" shadow="0">
      <root>
        <mxCell id="nGcpeofksoNWgutC63UL-0" />
        <mxCell id="nGcpeofksoNWgutC63UL-1" parent="nGcpeofksoNWgutC63UL-0" />
        <mxCell id="nGcpeofksoNWgutC63UL-2" value="" style="edgeStyle=none;curved=1;rounded=0;orthogonalLoop=1;jettySize=auto;html=1;fontSize=12;startSize=8;endSize=8;strokeWidth=3;entryX=0;entryY=0.5;entryDx=0;entryDy=0;" parent="nGcpeofksoNWgutC63UL-1" source="nGcpeofksoNWgutC63UL-3" target="DwVRhaM95ApkOaXowhDN-0" edge="1">
          <mxGeometry relative="1" as="geometry">
            <mxPoint x="-401" y="3.304878048780438" as="targetPoint" />
          </mxGeometry>
        </mxCell>
        <mxCell id="nGcpeofksoNWgutC63UL-3" value="&lt;span&gt;&lt;font&gt;Start&lt;/font&gt;&lt;/span&gt;" style="strokeWidth=3;html=1;shape=mxgraph.flowchart.terminator;whiteSpace=wrap;fontSize=14;fontStyle=1" parent="nGcpeofksoNWgutC63UL-1" vertex="1">
          <mxGeometry x="-558" y="-17" width="100" height="38" as="geometry" />
        </mxCell>
        <mxCell id="nGcpeofksoNWgutC63UL-4" value="&lt;span&gt;End&lt;/span&gt;" style="strokeWidth=3;html=1;shape=mxgraph.flowchart.terminator;whiteSpace=wrap;fontSize=14;fontStyle=1" parent="nGcpeofksoNWgutC63UL-1" vertex="1">
          <mxGeometry x="971" y="-17.5" width="100" height="38" as="geometry" />
        </mxCell>
        <mxCell id="BXc7B4OxbNUOF-Gr2naR-0" value="" style="edgeStyle=none;curved=1;rounded=0;orthogonalLoop=1;jettySize=auto;html=1;fontSize=12;startSize=8;endSize=8;strokeWidth=3;exitX=1;exitY=0.5;exitDx=0;exitDy=0;" parent="nGcpeofksoNWgutC63UL-1" source="DwVRhaM95ApkOaXowhDN-0" target="nGcpeofksoNWgutC63UL-15" edge="1">
          <mxGeometry relative="1" as="geometry">
            <mxPoint x="-287" y="3.4519230769230944" as="sourcePoint" />
          </mxGeometry>
        </mxCell>
        <mxCell id="BXc7B4OxbNUOF-Gr2naR-1" value="" style="edgeStyle=none;curved=1;rounded=0;orthogonalLoop=1;jettySize=auto;html=1;fontSize=12;startSize=8;endSize=8;strokeWidth=3;entryX=0;entryY=0.5;entryDx=0;entryDy=0;" parent="nGcpeofksoNWgutC63UL-1" source="nGcpeofksoNWgutC63UL-15" target="9PnrrtsjhwRKV8XPRkOw-0" edge="1">
          <mxGeometry relative="1" as="geometry">
            <mxPoint x="17" y="3.6007827788648683" as="targetPoint" />
          </mxGeometry>
        </mxCell>
        <mxCell id="nGcpeofksoNWgutC63UL-15" value="&lt;div&gt;Select&amp;nbsp;&lt;/div&gt;&lt;div&gt;Package&lt;/div&gt;" style="whiteSpace=wrap;html=1;fontSize=14;fontStyle=1;strokeWidth=3;" parent="nGcpeofksoNWgutC63UL-1" vertex="1">
          <mxGeometry x="-294" y="-28" width="72" height="60" as="geometry" />
        </mxCell>
        <mxCell id="DwVRhaM95ApkOaXowhDN-0" value="&lt;div&gt;Add&amp;nbsp;&lt;/div&gt;&lt;div&gt;Block&lt;/div&gt;" style="shape=process;whiteSpace=wrap;html=1;backgroundOutline=1;fontSize=14;fontStyle=1;strokeWidth=3;" vertex="1" parent="nGcpeofksoNWgutC63UL-1">
          <mxGeometry x="-413" y="-28" width="74" height="60" as="geometry" />
        </mxCell>
        <mxCell id="9PnrrtsjhwRKV8XPRkOw-7" value="" style="edgeStyle=orthogonalEdgeStyle;rounded=0;orthogonalLoop=1;jettySize=auto;html=1;strokeWidth=3;" edge="1" parent="nGcpeofksoNWgutC63UL-1" source="9PnrrtsjhwRKV8XPRkOw-0" target="9PnrrtsjhwRKV8XPRkOw-1">
          <mxGeometry relative="1" as="geometry" />
        </mxCell>
        <mxCell id="9PnrrtsjhwRKV8XPRkOw-13" value="&lt;font style=&quot;font-size: 13px;&quot;&gt;&lt;b&gt;YES&lt;/b&gt;&lt;/font&gt;" style="edgeLabel;html=1;align=center;verticalAlign=middle;resizable=0;points=[];" vertex="1" connectable="0" parent="9PnrrtsjhwRKV8XPRkOw-7">
          <mxGeometry x="0.0222" y="-2" relative="1" as="geometry">
            <mxPoint as="offset" />
          </mxGeometry>
        </mxCell>
        <mxCell id="9PnrrtsjhwRKV8XPRkOw-18" value="" style="edgeStyle=orthogonalEdgeStyle;rounded=0;orthogonalLoop=1;jettySize=auto;html=1;strokeWidth=3;" edge="1" parent="nGcpeofksoNWgutC63UL-1" source="9PnrrtsjhwRKV8XPRkOw-0" target="9PnrrtsjhwRKV8XPRkOw-3">
          <mxGeometry relative="1" as="geometry" />
        </mxCell>
        <mxCell id="9PnrrtsjhwRKV8XPRkOw-20" value="&lt;b&gt;&lt;font style=&quot;font-size: 13px;&quot;&gt;NO&lt;/font&gt;&lt;/b&gt;" style="edgeLabel;html=1;align=center;verticalAlign=middle;resizable=0;points=[];" vertex="1" connectable="0" parent="9PnrrtsjhwRKV8XPRkOw-18">
          <mxGeometry x="-0.2258" relative="1" as="geometry">
            <mxPoint as="offset" />
          </mxGeometry>
        </mxCell>
        <mxCell id="9PnrrtsjhwRKV8XPRkOw-0" value="&lt;div&gt;Has&amp;nbsp;&lt;/div&gt;&lt;div&gt;PH?&lt;/div&gt;" style="rhombus;whiteSpace=wrap;html=1;fontSize=14;fontStyle=1;strokeWidth=3;" vertex="1" parent="nGcpeofksoNWgutC63UL-1">
          <mxGeometry x="-175" y="-37" width="95" height="77" as="geometry" />
        </mxCell>
        <mxCell id="9PnrrtsjhwRKV8XPRkOw-14" value="" style="edgeStyle=orthogonalEdgeStyle;rounded=0;orthogonalLoop=1;jettySize=auto;html=1;strokeWidth=3;" edge="1" parent="nGcpeofksoNWgutC63UL-1" source="9PnrrtsjhwRKV8XPRkOw-1" target="9PnrrtsjhwRKV8XPRkOw-2">
          <mxGeometry relative="1" as="geometry" />
        </mxCell>
        <mxCell id="9PnrrtsjhwRKV8XPRkOw-1" value="&lt;div&gt;Add&amp;nbsp;&lt;/div&gt;&lt;div&gt;Weapon&lt;/div&gt;" style="whiteSpace=wrap;html=1;fontSize=14;fontStyle=1;strokeWidth=3;" vertex="1" parent="nGcpeofksoNWgutC63UL-1">
          <mxGeometry x="-4" y="-28" width="68" height="60" as="geometry" />
        </mxCell>
        <mxCell id="9PnrrtsjhwRKV8XPRkOw-15" value="" style="edgeStyle=orthogonalEdgeStyle;rounded=0;orthogonalLoop=1;jettySize=auto;html=1;strokeWidth=3;" edge="1" parent="nGcpeofksoNWgutC63UL-1" source="9PnrrtsjhwRKV8XPRkOw-2" target="9PnrrtsjhwRKV8XPRkOw-5">
          <mxGeometry relative="1" as="geometry" />
        </mxCell>
        <mxCell id="9PnrrtsjhwRKV8XPRkOw-16" value="&lt;b&gt;&lt;font style=&quot;font-size: 13px;&quot;&gt;YES&lt;/font&gt;&lt;/b&gt;" style="edgeLabel;html=1;align=center;verticalAlign=middle;resizable=0;points=[];" vertex="1" connectable="0" parent="9PnrrtsjhwRKV8XPRkOw-15">
          <mxGeometry x="-0.2571" relative="1" as="geometry">
            <mxPoint as="offset" />
          </mxGeometry>
        </mxCell>
        <mxCell id="9PnrrtsjhwRKV8XPRkOw-19" value="" style="edgeStyle=orthogonalEdgeStyle;rounded=0;orthogonalLoop=1;jettySize=auto;html=1;strokeWidth=3;" edge="1" parent="nGcpeofksoNWgutC63UL-1" source="9PnrrtsjhwRKV8XPRkOw-2" target="9PnrrtsjhwRKV8XPRkOw-4">
          <mxGeometry relative="1" as="geometry" />
        </mxCell>
        <mxCell id="9PnrrtsjhwRKV8XPRkOw-21" value="&lt;b&gt;&lt;font style=&quot;font-size: 13px;&quot;&gt;NO&lt;/font&gt;&lt;/b&gt;" style="edgeLabel;html=1;align=center;verticalAlign=middle;resizable=0;points=[];" vertex="1" connectable="0" parent="9PnrrtsjhwRKV8XPRkOw-19">
          <mxGeometry x="-0.0645" y="-1" relative="1" as="geometry">
            <mxPoint as="offset" />
          </mxGeometry>
        </mxCell>
        <mxCell id="9PnrrtsjhwRKV8XPRkOw-2" value="Weapon Verified?" style="rhombus;whiteSpace=wrap;html=1;fontSize=14;fontStyle=1;strokeWidth=3;" vertex="1" parent="nGcpeofksoNWgutC63UL-1">
          <mxGeometry x="105" y="-44" width="100" height="92" as="geometry" />
        </mxCell>
        <mxCell id="9PnrrtsjhwRKV8XPRkOw-3" value="Add PH" style="shape=process;whiteSpace=wrap;html=1;backgroundOutline=1;fontSize=14;fontStyle=1;strokeWidth=3;" vertex="1" parent="nGcpeofksoNWgutC63UL-1">
          <mxGeometry x="-185" y="110" width="120" height="60" as="geometry" />
        </mxCell>
        <mxCell id="9PnrrtsjhwRKV8XPRkOw-4" value="Verify Weapon" style="shape=process;whiteSpace=wrap;html=1;backgroundOutline=1;fontSize=14;fontStyle=1;strokeWidth=3;" vertex="1" parent="nGcpeofksoNWgutC63UL-1">
          <mxGeometry x="95" y="110" width="120" height="60" as="geometry" />
        </mxCell>
        <mxCell id="9PnrrtsjhwRKV8XPRkOw-17" value="" style="edgeStyle=orthogonalEdgeStyle;rounded=0;orthogonalLoop=1;jettySize=auto;html=1;strokeWidth=3;" edge="1" parent="nGcpeofksoNWgutC63UL-1" source="9PnrrtsjhwRKV8XPRkOw-5" target="9PnrrtsjhwRKV8XPRkOw-6">
          <mxGeometry relative="1" as="geometry" />
        </mxCell>
        <mxCell id="9PnrrtsjhwRKV8XPRkOw-5" value="Add Observers" style="whiteSpace=wrap;html=1;fontSize=14;fontStyle=1;strokeWidth=3;" vertex="1" parent="nGcpeofksoNWgutC63UL-1">
          <mxGeometry x="262" y="-28" width="102" height="60" as="geometry" />
        </mxCell>
        <mxCell id="9PnrrtsjhwRKV8XPRkOw-23" value="" style="edgeStyle=orthogonalEdgeStyle;rounded=0;orthogonalLoop=1;jettySize=auto;html=1;strokeWidth=3;entryX=0.5;entryY=0;entryDx=0;entryDy=0;exitX=0.5;exitY=1;exitDx=0;exitDy=0;" edge="1" parent="nGcpeofksoNWgutC63UL-1" source="9PnrrtsjhwRKV8XPRkOw-30" target="9PnrrtsjhwRKV8XPRkOw-34">
          <mxGeometry relative="1" as="geometry">
            <mxPoint x="553" y="1.5" as="targetPoint" />
          </mxGeometry>
        </mxCell>
        <mxCell id="9PnrrtsjhwRKV8XPRkOw-73" value="&lt;font style=&quot;font-size: 13px;&quot;&gt;&lt;b&gt;NO&lt;/b&gt;&lt;/font&gt;" style="edgeLabel;html=1;align=center;verticalAlign=middle;resizable=0;points=[];" vertex="1" connectable="0" parent="9PnrrtsjhwRKV8XPRkOw-23">
          <mxGeometry x="-0.8602" y="-1" relative="1" as="geometry">
            <mxPoint as="offset" />
          </mxGeometry>
        </mxCell>
        <mxCell id="9PnrrtsjhwRKV8XPRkOw-40" value="" style="edgeStyle=orthogonalEdgeStyle;rounded=0;orthogonalLoop=1;jettySize=auto;html=1;strokeWidth=3;" edge="1" parent="nGcpeofksoNWgutC63UL-1" source="9PnrrtsjhwRKV8XPRkOw-6" target="9PnrrtsjhwRKV8XPRkOw-30">
          <mxGeometry relative="1" as="geometry" />
        </mxCell>
        <mxCell id="9PnrrtsjhwRKV8XPRkOw-6" value="&lt;div&gt;Get&lt;/div&gt;&lt;div&gt;Permit&lt;/div&gt;" style="whiteSpace=wrap;html=1;fontSize=14;fontStyle=1;strokeWidth=3;" vertex="1" parent="nGcpeofksoNWgutC63UL-1">
          <mxGeometry x="408" y="-28" width="72" height="60" as="geometry" />
        </mxCell>
        <mxCell id="9PnrrtsjhwRKV8XPRkOw-42" value="" style="edgeStyle=orthogonalEdgeStyle;rounded=0;orthogonalLoop=1;jettySize=auto;html=1;strokeWidth=3;" edge="1" parent="nGcpeofksoNWgutC63UL-1" source="9PnrrtsjhwRKV8XPRkOw-30" target="9PnrrtsjhwRKV8XPRkOw-41">
          <mxGeometry relative="1" as="geometry" />
        </mxCell>
        <mxCell id="9PnrrtsjhwRKV8XPRkOw-43" value="&lt;font style=&quot;font-size: 13px;&quot;&gt;&lt;b&gt;YES&lt;/b&gt;&lt;/font&gt;" style="edgeLabel;html=1;align=center;verticalAlign=middle;resizable=0;points=[];" vertex="1" connectable="0" parent="9PnrrtsjhwRKV8XPRkOw-42">
          <mxGeometry x="-0.2347" y="1" relative="1" as="geometry">
            <mxPoint as="offset" />
          </mxGeometry>
        </mxCell>
        <mxCell id="9PnrrtsjhwRKV8XPRkOw-30" value="Permit Expired?" style="rhombus;whiteSpace=wrap;html=1;fontSize=14;fontStyle=1;strokeWidth=3;" vertex="1" parent="nGcpeofksoNWgutC63UL-1">
          <mxGeometry x="521.62" y="-45.51" width="108.25" height="95.01" as="geometry" />
        </mxCell>
        <mxCell id="9PnrrtsjhwRKV8XPRkOw-32" value="" style="edgeStyle=orthogonalEdgeStyle;rounded=0;orthogonalLoop=1;jettySize=auto;html=1;strokeWidth=3;" edge="1" parent="nGcpeofksoNWgutC63UL-1" source="9PnrrtsjhwRKV8XPRkOw-34" target="9PnrrtsjhwRKV8XPRkOw-37">
          <mxGeometry relative="1" as="geometry" />
        </mxCell>
        <mxCell id="9PnrrtsjhwRKV8XPRkOw-33" value="&lt;b&gt;&lt;font style=&quot;font-size: 13px;&quot;&gt;NO&lt;/font&gt;&lt;/b&gt;" style="edgeLabel;html=1;align=center;verticalAlign=middle;resizable=0;points=[];" vertex="1" connectable="0" parent="9PnrrtsjhwRKV8XPRkOw-32">
          <mxGeometry x="-0.0061" y="1" relative="1" as="geometry">
            <mxPoint y="1" as="offset" />
          </mxGeometry>
        </mxCell>
        <mxCell id="9PnrrtsjhwRKV8XPRkOw-57" value="" style="edgeStyle=orthogonalEdgeStyle;rounded=0;orthogonalLoop=1;jettySize=auto;html=1;strokeWidth=3;entryX=0;entryY=0.5;entryDx=0;entryDy=0;exitX=0.5;exitY=1;exitDx=0;exitDy=0;" edge="1" parent="nGcpeofksoNWgutC63UL-1" source="9PnrrtsjhwRKV8XPRkOw-34" target="9PnrrtsjhwRKV8XPRkOw-55">
          <mxGeometry relative="1" as="geometry">
            <mxPoint x="419" y="207" as="sourcePoint" />
            <mxPoint x="532.0300000000002" y="311.02" as="targetPoint" />
          </mxGeometry>
        </mxCell>
        <mxCell id="9PnrrtsjhwRKV8XPRkOw-58" value="&lt;font style=&quot;font-size: 13px;&quot;&gt;&lt;b&gt;YES&lt;/b&gt;&lt;/font&gt;" style="edgeLabel;html=1;align=center;verticalAlign=middle;resizable=0;points=[];" vertex="1" connectable="0" parent="9PnrrtsjhwRKV8XPRkOw-57">
          <mxGeometry x="-0.7512" relative="1" as="geometry">
            <mxPoint as="offset" />
          </mxGeometry>
        </mxCell>
        <mxCell id="9PnrrtsjhwRKV8XPRkOw-34" value="Extend Days?" style="rhombus;whiteSpace=wrap;html=1;fontSize=14;fontStyle=1;strokeWidth=3;" vertex="1" parent="nGcpeofksoNWgutC63UL-1">
          <mxGeometry x="401.5" y="111" width="85" height="89" as="geometry" />
        </mxCell>
        <mxCell id="9PnrrtsjhwRKV8XPRkOw-35" value="" style="edgeStyle=orthogonalEdgeStyle;rounded=0;orthogonalLoop=1;jettySize=auto;html=1;strokeWidth=3;" edge="1" parent="nGcpeofksoNWgutC63UL-1" source="9PnrrtsjhwRKV8XPRkOw-37" target="9PnrrtsjhwRKV8XPRkOw-39">
          <mxGeometry relative="1" as="geometry" />
        </mxCell>
        <mxCell id="9PnrrtsjhwRKV8XPRkOw-36" value="&lt;b&gt;&lt;font style=&quot;font-size: 13px;&quot;&gt;NO&lt;/font&gt;&lt;/b&gt;" style="edgeLabel;html=1;align=center;verticalAlign=middle;resizable=0;points=[];" vertex="1" connectable="0" parent="9PnrrtsjhwRKV8XPRkOw-35">
          <mxGeometry x="-0.1952" y="2" relative="1" as="geometry">
            <mxPoint as="offset" />
          </mxGeometry>
        </mxCell>
        <mxCell id="9PnrrtsjhwRKV8XPRkOw-59" value="" style="edgeStyle=orthogonalEdgeStyle;rounded=0;orthogonalLoop=1;jettySize=auto;html=1;strokeWidth=3;" edge="1" parent="nGcpeofksoNWgutC63UL-1" source="9PnrrtsjhwRKV8XPRkOw-37" target="9PnrrtsjhwRKV8XPRkOw-55">
          <mxGeometry relative="1" as="geometry" />
        </mxCell>
        <mxCell id="9PnrrtsjhwRKV8XPRkOw-60" value="&lt;font style=&quot;font-size: 13px;&quot;&gt;&lt;b&gt;YES&lt;/b&gt;&lt;/font&gt;" style="edgeLabel;html=1;align=center;verticalAlign=middle;resizable=0;points=[];" vertex="1" connectable="0" parent="9PnrrtsjhwRKV8XPRkOw-59">
          <mxGeometry x="-0.3849" y="-1" relative="1" as="geometry">
            <mxPoint as="offset" />
          </mxGeometry>
        </mxCell>
        <mxCell id="9PnrrtsjhwRKV8XPRkOw-37" value="Additional Animals?" style="rhombus;whiteSpace=wrap;html=1;fontSize=14;fontStyle=1;strokeWidth=3;" vertex="1" parent="nGcpeofksoNWgutC63UL-1">
          <mxGeometry x="560.5" y="108" width="114.5" height="95.5" as="geometry" />
        </mxCell>
        <mxCell id="9PnrrtsjhwRKV8XPRkOw-38" value="" style="edgeStyle=orthogonalEdgeStyle;rounded=0;orthogonalLoop=1;jettySize=auto;html=1;strokeWidth=3;entryX=0.5;entryY=1;entryDx=0;entryDy=0;entryPerimeter=0;" edge="1" parent="nGcpeofksoNWgutC63UL-1" source="9PnrrtsjhwRKV8XPRkOw-39" target="nGcpeofksoNWgutC63UL-4">
          <mxGeometry relative="1" as="geometry">
            <mxPoint x="922" y="124" as="targetPoint" />
          </mxGeometry>
        </mxCell>
        <mxCell id="9PnrrtsjhwRKV8XPRkOw-70" value="&lt;font style=&quot;font-size: 13px;&quot;&gt;&lt;b&gt;NO&lt;/b&gt;&lt;/font&gt;" style="edgeLabel;html=1;align=center;verticalAlign=middle;resizable=0;points=[];" vertex="1" connectable="0" parent="9PnrrtsjhwRKV8XPRkOw-38">
          <mxGeometry x="-0.7464" y="-1" relative="1" as="geometry">
            <mxPoint as="offset" />
          </mxGeometry>
        </mxCell>
        <mxCell id="9PnrrtsjhwRKV8XPRkOw-65" value="" style="edgeStyle=orthogonalEdgeStyle;rounded=0;orthogonalLoop=1;jettySize=auto;html=1;strokeWidth=3;entryX=1;entryY=0.5;entryDx=0;entryDy=0;" edge="1" parent="nGcpeofksoNWgutC63UL-1" source="9PnrrtsjhwRKV8XPRkOw-39" target="9PnrrtsjhwRKV8XPRkOw-55">
          <mxGeometry relative="1" as="geometry">
            <mxPoint x="711" y="334" as="targetPoint" />
            <Array as="points">
              <mxPoint x="779" y="297" />
            </Array>
          </mxGeometry>
        </mxCell>
        <mxCell id="9PnrrtsjhwRKV8XPRkOw-66" value="&lt;font style=&quot;font-size: 13px;&quot;&gt;&lt;b&gt;YES&lt;/b&gt;&lt;/font&gt;" style="edgeLabel;html=1;align=center;verticalAlign=middle;resizable=0;points=[];" vertex="1" connectable="0" parent="9PnrrtsjhwRKV8XPRkOw-65">
          <mxGeometry x="-0.7353" y="-1" relative="1" as="geometry">
            <mxPoint as="offset" />
          </mxGeometry>
        </mxCell>
        <mxCell id="9PnrrtsjhwRKV8XPRkOw-39" value="Has Inter Compay" style="rhombus;whiteSpace=wrap;html=1;fontSize=14;fontStyle=1;strokeWidth=3;" vertex="1" parent="nGcpeofksoNWgutC63UL-1">
          <mxGeometry x="733.25" y="111" width="91.75" height="88.75" as="geometry" />
        </mxCell>
        <mxCell id="9PnrrtsjhwRKV8XPRkOw-49" value="" style="edgeStyle=orthogonalEdgeStyle;rounded=0;orthogonalLoop=1;jettySize=auto;html=1;strokeWidth=3;" edge="1" parent="nGcpeofksoNWgutC63UL-1" source="9PnrrtsjhwRKV8XPRkOw-41" target="9PnrrtsjhwRKV8XPRkOw-48">
          <mxGeometry relative="1" as="geometry" />
        </mxCell>
        <mxCell id="9PnrrtsjhwRKV8XPRkOw-41" value="&lt;div&gt;Return&amp;nbsp;&lt;/div&gt;&lt;div&gt;Permit&lt;/div&gt;" style="whiteSpace=wrap;html=1;fontSize=14;fontStyle=1;strokeWidth=3;" vertex="1" parent="nGcpeofksoNWgutC63UL-1">
          <mxGeometry x="703" y="-28" width="65" height="60" as="geometry" />
        </mxCell>
        <mxCell id="9PnrrtsjhwRKV8XPRkOw-51" value="" style="edgeStyle=orthogonalEdgeStyle;rounded=0;orthogonalLoop=1;jettySize=auto;html=1;strokeWidth=3;entryX=0.5;entryY=1;entryDx=0;entryDy=0;" edge="1" parent="nGcpeofksoNWgutC63UL-1" source="9PnrrtsjhwRKV8XPRkOw-48" target="9PnrrtsjhwRKV8XPRkOw-50">
          <mxGeometry relative="1" as="geometry">
            <mxPoint x="934" y="-94" as="targetPoint" />
          </mxGeometry>
        </mxCell>
        <mxCell id="9PnrrtsjhwRKV8XPRkOw-52" value="&lt;font style=&quot;font-size: 13px;&quot;&gt;&lt;b&gt;NO&lt;/b&gt;&lt;/font&gt;" style="edgeLabel;html=1;align=center;verticalAlign=middle;resizable=0;points=[];" vertex="1" connectable="0" parent="9PnrrtsjhwRKV8XPRkOw-51">
          <mxGeometry x="-0.1222" y="1" relative="1" as="geometry">
            <mxPoint as="offset" />
          </mxGeometry>
        </mxCell>
        <mxCell id="9PnrrtsjhwRKV8XPRkOw-53" value="" style="edgeStyle=orthogonalEdgeStyle;rounded=0;orthogonalLoop=1;jettySize=auto;html=1;strokeWidth=3;" edge="1" parent="nGcpeofksoNWgutC63UL-1" source="9PnrrtsjhwRKV8XPRkOw-48" target="nGcpeofksoNWgutC63UL-4">
          <mxGeometry relative="1" as="geometry" />
        </mxCell>
        <mxCell id="9PnrrtsjhwRKV8XPRkOw-54" value="&lt;font style=&quot;font-size: 13px;&quot;&gt;&lt;b&gt;YES&lt;/b&gt;&lt;/font&gt;" style="edgeLabel;html=1;align=center;verticalAlign=middle;resizable=0;points=[];" vertex="1" connectable="0" parent="9PnrrtsjhwRKV8XPRkOw-53">
          <mxGeometry x="-0.1517" y="1" relative="1" as="geometry">
            <mxPoint as="offset" />
          </mxGeometry>
        </mxCell>
        <mxCell id="9PnrrtsjhwRKV8XPRkOw-48" value="&lt;div&gt;Permit&amp;nbsp;&lt;/div&gt;&lt;div&gt;Return?&lt;/div&gt;" style="rhombus;whiteSpace=wrap;html=1;fontSize=14;fontStyle=1;strokeWidth=3;" vertex="1" parent="nGcpeofksoNWgutC63UL-1">
          <mxGeometry x="804" y="-38.75" width="92" height="81.5" as="geometry" />
        </mxCell>
        <mxCell id="9PnrrtsjhwRKV8XPRkOw-50" value="Penalty" style="shape=process;whiteSpace=wrap;html=1;backgroundOutline=1;fontSize=14;fontStyle=1;strokeWidth=3;" vertex="1" parent="nGcpeofksoNWgutC63UL-1">
          <mxGeometry x="805.5" y="-179" width="89" height="60" as="geometry" />
        </mxCell>
        <mxCell id="9PnrrtsjhwRKV8XPRkOw-55" value="Settled" style="shape=process;whiteSpace=wrap;html=1;backgroundOutline=1;fontSize=14;fontStyle=1;strokeWidth=3;" vertex="1" parent="nGcpeofksoNWgutC63UL-1">
          <mxGeometry x="557.75" y="267" width="120" height="60" as="geometry" />
        </mxCell>
      </root>
    </mxGraphModel>
  </diagram>
  <diagram name="GameKilledRecording" id="y0lo2LuPj2kqJT-pw5u0">
    <mxGraphModel dx="2208" dy="1294" grid="0" gridSize="10" guides="1" tooltips="1" connect="1" arrows="1" fold="1" page="0" pageScale="1" pageWidth="850" pageHeight="1100" math="0" shadow="0">
      <root>
        <mxCell id="WJafnOqP63Unvw65Ywop-0" />
        <mxCell id="WJafnOqP63Unvw65Ywop-1" parent="WJafnOqP63Unvw65Ywop-0" />
        <mxCell id="WJafnOqP63Unvw65Ywop-2" value="" style="edgeStyle=none;curved=1;rounded=0;orthogonalLoop=1;jettySize=auto;html=1;fontSize=12;startSize=8;endSize=8;strokeWidth=3;entryX=0;entryY=0.5;entryDx=0;entryDy=0;" parent="WJafnOqP63Unvw65Ywop-1" source="WJafnOqP63Unvw65Ywop-3" target="WJafnOqP63Unvw65Ywop-10" edge="1">
          <mxGeometry relative="1" as="geometry">
            <mxPoint x="-465" y="-2.695121951219562" as="targetPoint" />
          </mxGeometry>
        </mxCell>
        <mxCell id="WJafnOqP63Unvw65Ywop-3" value="&lt;span&gt;&lt;font&gt;Start&lt;/font&gt;&lt;/span&gt;" style="strokeWidth=3;html=1;shape=mxgraph.flowchart.terminator;whiteSpace=wrap;fontSize=14;fontStyle=1" parent="WJafnOqP63Unvw65Ywop-1" vertex="1">
          <mxGeometry x="-619" y="-23" width="100" height="38" as="geometry" />
        </mxCell>
        <mxCell id="m2lKjlFJj85tEI7oiHO0-3" value="" style="edgeStyle=none;curved=1;rounded=0;orthogonalLoop=1;jettySize=auto;html=1;fontSize=12;startSize=8;endSize=8;fontStyle=1;strokeWidth=3;entryX=0;entryY=0.5;entryDx=0;entryDy=0;" parent="WJafnOqP63Unvw65Ywop-1" source="WJafnOqP63Unvw65Ywop-10" target="GbV1g3nNIKFY-vj3BCpz-16" edge="1">
          <mxGeometry relative="1" as="geometry">
            <mxPoint x="-289" y="-4" as="targetPoint" />
          </mxGeometry>
        </mxCell>
        <mxCell id="WJafnOqP63Unvw65Ywop-10" value="Record Game Killed" style="whiteSpace=wrap;html=1;fontSize=14;fontStyle=1;strokeWidth=3;" parent="WJafnOqP63Unvw65Ywop-1" vertex="1">
          <mxGeometry x="-454" y="-34" width="120" height="60" as="geometry" />
        </mxCell>
        <mxCell id="m2lKjlFJj85tEI7oiHO0-1" value="" style="edgeStyle=none;curved=1;rounded=0;orthogonalLoop=1;jettySize=auto;html=1;fontSize=12;startSize=8;endSize=8;fontStyle=1;strokeWidth=3;" parent="WJafnOqP63Unvw65Ywop-1" source="m2lKjlFJj85tEI7oiHO0-0" target="WJafnOqP63Unvw65Ywop-10" edge="1">
          <mxGeometry relative="1" as="geometry" />
        </mxCell>
        <mxCell id="m2lKjlFJj85tEI7oiHO0-0" value="Hunting Safari Permit" style="shape=process;whiteSpace=wrap;html=1;backgroundOutline=1;fontStyle=1;strokeWidth=3;" parent="WJafnOqP63Unvw65Ywop-1" vertex="1">
          <mxGeometry x="-454" y="-163" width="120" height="60" as="geometry" />
        </mxCell>
        <mxCell id="GbV1g3nNIKFY-vj3BCpz-0" value="&lt;span&gt;End&lt;/span&gt;" style="strokeWidth=3;html=1;shape=mxgraph.flowchart.terminator;whiteSpace=wrap;fontSize=14;fontStyle=1" vertex="1" parent="WJafnOqP63Unvw65Ywop-1">
          <mxGeometry x="392" y="-21.5" width="100" height="38" as="geometry" />
        </mxCell>
        <mxCell id="GbV1g3nNIKFY-vj3BCpz-1" value="" style="edgeStyle=none;curved=1;rounded=0;orthogonalLoop=1;jettySize=auto;html=1;fontSize=12;startSize=8;endSize=8;strokeWidth=3;entryX=0;entryY=0.5;entryDx=0;entryDy=0;entryPerimeter=0;" edge="1" parent="WJafnOqP63Unvw65Ywop-1" source="GbV1g3nNIKFY-vj3BCpz-2" target="GbV1g3nNIKFY-vj3BCpz-0">
          <mxGeometry relative="1" as="geometry">
            <mxPoint x="446" y="-2" as="targetPoint" />
          </mxGeometry>
        </mxCell>
        <mxCell id="GbV1g3nNIKFY-vj3BCpz-2" value="Declare Trophy Export" style="whiteSpace=wrap;html=1;fontSize=14;fontStyle=1;strokeWidth=3;" vertex="1" parent="WJafnOqP63Unvw65Ywop-1">
          <mxGeometry x="228" y="-30" width="102" height="55" as="geometry" />
        </mxCell>
        <mxCell id="GbV1g3nNIKFY-vj3BCpz-3" value="" style="edgeStyle=none;curved=1;rounded=0;orthogonalLoop=1;jettySize=auto;html=1;fontSize=12;startSize=8;endSize=8;fontStyle=1;strokeWidth=3;entryX=0;entryY=0.5;entryDx=0;entryDy=0;" edge="1" parent="WJafnOqP63Unvw65Ywop-1" source="GbV1g3nNIKFY-vj3BCpz-7" target="GbV1g3nNIKFY-vj3BCpz-2">
          <mxGeometry relative="1" as="geometry">
            <mxPoint x="178" y="-3.212802768166057" as="targetPoint" />
          </mxGeometry>
        </mxCell>
        <mxCell id="GbV1g3nNIKFY-vj3BCpz-4" value="YES" style="edgeLabel;html=1;align=center;verticalAlign=middle;resizable=0;points=[];fontSize=12;fontStyle=1" vertex="1" connectable="0" parent="GbV1g3nNIKFY-vj3BCpz-3">
          <mxGeometry x="-0.4592" y="1" relative="1" as="geometry">
            <mxPoint as="offset" />
          </mxGeometry>
        </mxCell>
        <mxCell id="GbV1g3nNIKFY-vj3BCpz-5" value="" style="edgeStyle=none;curved=0;rounded=0;orthogonalLoop=1;jettySize=auto;html=1;fontSize=12;startSize=8;endSize=8;exitX=0.5;exitY=1;exitDx=0;exitDy=0;entryX=0.5;entryY=0;entryDx=0;entryDy=0;strokeWidth=3;" edge="1" parent="WJafnOqP63Unvw65Ywop-1" source="GbV1g3nNIKFY-vj3BCpz-7" target="GbV1g3nNIKFY-vj3BCpz-14">
          <mxGeometry relative="1" as="geometry">
            <mxPoint x="79" y="4" as="sourcePoint" />
            <mxPoint x="604" y="10" as="targetPoint" />
            <Array as="points">
              <mxPoint x="85" y="84" />
            </Array>
          </mxGeometry>
        </mxCell>
        <mxCell id="GbV1g3nNIKFY-vj3BCpz-15" value="&lt;font style=&quot;font-size: 13px;&quot;&gt;&lt;b&gt;NO&lt;/b&gt;&lt;/font&gt;" style="edgeLabel;html=1;align=center;verticalAlign=middle;resizable=0;points=[];" vertex="1" connectable="0" parent="GbV1g3nNIKFY-vj3BCpz-5">
          <mxGeometry x="-0.3506" y="1" relative="1" as="geometry">
            <mxPoint as="offset" />
          </mxGeometry>
        </mxCell>
        <mxCell id="GbV1g3nNIKFY-vj3BCpz-7" value="Paid in 28 Days?" style="rhombus;whiteSpace=wrap;html=1;fontStyle=1;strokeWidth=3;" vertex="1" parent="WJafnOqP63Unvw65Ywop-1">
          <mxGeometry x="40" y="-51" width="90" height="93" as="geometry" />
        </mxCell>
        <mxCell id="GbV1g3nNIKFY-vj3BCpz-12" value="" style="edgeStyle=orthogonalEdgeStyle;rounded=0;orthogonalLoop=1;jettySize=auto;html=1;strokeWidth=3;exitX=1;exitY=0.5;exitDx=0;exitDy=0;" edge="1" parent="WJafnOqP63Unvw65Ywop-1" source="GbV1g3nNIKFY-vj3BCpz-16" target="GbV1g3nNIKFY-vj3BCpz-11">
          <mxGeometry relative="1" as="geometry">
            <mxPoint x="-169" y="-4" as="sourcePoint" />
          </mxGeometry>
        </mxCell>
        <mxCell id="GbV1g3nNIKFY-vj3BCpz-13" value="" style="edgeStyle=orthogonalEdgeStyle;rounded=0;orthogonalLoop=1;jettySize=auto;html=1;strokeWidth=3;" edge="1" parent="WJafnOqP63Unvw65Ywop-1" source="GbV1g3nNIKFY-vj3BCpz-11" target="GbV1g3nNIKFY-vj3BCpz-7">
          <mxGeometry relative="1" as="geometry" />
        </mxCell>
        <mxCell id="GbV1g3nNIKFY-vj3BCpz-11" value="Make Payment" style="whiteSpace=wrap;html=1;fontSize=14;fontStyle=1;strokeWidth=3;" vertex="1" parent="WJafnOqP63Unvw65Ywop-1">
          <mxGeometry x="-119" y="-34" width="120" height="60" as="geometry" />
        </mxCell>
        <mxCell id="GbV1g3nNIKFY-vj3BCpz-14" value="Penalty" style="shape=process;whiteSpace=wrap;html=1;backgroundOutline=1;fontStyle=1;strokeWidth=3;" vertex="1" parent="WJafnOqP63Unvw65Ywop-1">
          <mxGeometry x="25" y="108" width="120" height="47" as="geometry" />
        </mxCell>
        <mxCell id="GbV1g3nNIKFY-vj3BCpz-16" value="&lt;font style=&quot;font-size: 14px;&quot;&gt;Generate Bill&lt;/font&gt;" style="shape=process;whiteSpace=wrap;html=1;backgroundOutline=1;fontStyle=1;strokeWidth=3;" vertex="1" parent="WJafnOqP63Unvw65Ywop-1">
          <mxGeometry x="-275" y="-34" width="120" height="60" as="geometry" />
        </mxCell>
      </root>
    </mxGraphModel>
  </diagram>
  <diagram name="SWAICA" id="NZ2UW5Ry9mI1E2B-qB7K">
    <mxGraphModel dx="2208" dy="1294" grid="0" gridSize="10" guides="1" tooltips="1" connect="1" arrows="1" fold="1" page="0" pageScale="1" pageWidth="850" pageHeight="1100" math="0" shadow="0">
      <root>
        <mxCell id="Ku7jBzeQ8ehXJZni3nU3-0" />
        <mxCell id="Ku7jBzeQ8ehXJZni3nU3-1" parent="Ku7jBzeQ8ehXJZni3nU3-0" />
        <mxCell id="En-os2AsCj4nEPI4qXVi-3" value="" style="edgeStyle=none;curved=1;rounded=0;orthogonalLoop=1;jettySize=auto;html=1;fontSize=12;startSize=8;endSize=8;strokeWidth=3;" parent="Ku7jBzeQ8ehXJZni3nU3-1" source="Ku7jBzeQ8ehXJZni3nU3-3" edge="1">
          <mxGeometry relative="1" as="geometry">
            <mxPoint x="-457" y="2" as="targetPoint" />
          </mxGeometry>
        </mxCell>
        <mxCell id="Ku7jBzeQ8ehXJZni3nU3-3" value="&lt;span&gt;&lt;font&gt;Start&lt;/font&gt;&lt;/span&gt;" style="strokeWidth=3;html=1;shape=mxgraph.flowchart.terminator;whiteSpace=wrap;fontSize=14;fontStyle=1" parent="Ku7jBzeQ8ehXJZni3nU3-1" vertex="1">
          <mxGeometry x="-622" y="-17" width="100" height="38" as="geometry" />
        </mxCell>
        <mxCell id="Ku7jBzeQ8ehXJZni3nU3-4" value="&lt;span&gt;End&lt;/span&gt;" style="strokeWidth=3;html=1;shape=mxgraph.flowchart.terminator;whiteSpace=wrap;fontSize=14;fontStyle=1" parent="Ku7jBzeQ8ehXJZni3nU3-1" vertex="1">
          <mxGeometry x="44.09" y="358" width="100" height="38" as="geometry" />
        </mxCell>
        <mxCell id="Ku7jBzeQ8ehXJZni3nU3-13" value="" style="edgeStyle=none;curved=1;rounded=0;orthogonalLoop=1;jettySize=auto;html=1;fontSize=12;startSize=8;endSize=8;fontStyle=1;strokeWidth=3;entryX=0;entryY=0.5;entryDx=0;entryDy=0;entryPerimeter=0;" parent="Ku7jBzeQ8ehXJZni3nU3-1" target="Ku7jBzeQ8ehXJZni3nU3-4" edge="1">
          <mxGeometry relative="1" as="geometry">
            <mxPoint x="-158.98194244604306" y="377.07194244604307" as="sourcePoint" />
            <mxPoint x="27.09" y="377.4072072072072" as="targetPoint" />
          </mxGeometry>
        </mxCell>
        <mxCell id="Ku7jBzeQ8ehXJZni3nU3-14" value="YES" style="edgeLabel;html=1;align=center;verticalAlign=middle;resizable=0;points=[];fontSize=12;fontStyle=1" parent="Ku7jBzeQ8ehXJZni3nU3-13" vertex="1" connectable="0">
          <mxGeometry x="-0.4592" y="1" relative="1" as="geometry">
            <mxPoint as="offset" />
          </mxGeometry>
        </mxCell>
        <mxCell id="EozH6hyCjL0235nXlsQM-1" value="" style="edgeStyle=none;curved=1;rounded=0;orthogonalLoop=1;jettySize=auto;html=1;fontSize=12;startSize=8;endSize=8;strokeWidth=3;" parent="Ku7jBzeQ8ehXJZni3nU3-1" source="Ku7jBzeQ8ehXJZni3nU3-16" edge="1">
          <mxGeometry relative="1" as="geometry">
            <mxPoint x="-198.91" y="461" as="targetPoint" />
          </mxGeometry>
        </mxCell>
        <mxCell id="PhZNez_TGPZowhgYU-Nu-1" value="&lt;b&gt;NO&lt;/b&gt;" style="edgeLabel;html=1;align=center;verticalAlign=middle;resizable=0;points=[];fontSize=12;" parent="EozH6hyCjL0235nXlsQM-1" vertex="1" connectable="0">
          <mxGeometry x="-0.3962" y="1" relative="1" as="geometry">
            <mxPoint as="offset" />
          </mxGeometry>
        </mxCell>
        <mxCell id="Ku7jBzeQ8ehXJZni3nU3-16" value="Acquitted?" style="rhombus;whiteSpace=wrap;html=1;fontStyle=1;strokeWidth=3;" parent="Ku7jBzeQ8ehXJZni3nU3-1" vertex="1">
          <mxGeometry x="-238.91" y="338" width="80" height="80" as="geometry" />
        </mxCell>
        <mxCell id="EozH6hyCjL0235nXlsQM-0" value="" style="edgeStyle=none;curved=1;rounded=0;orthogonalLoop=1;jettySize=auto;html=1;fontSize=12;startSize=8;endSize=8;strokeWidth=3;" parent="Ku7jBzeQ8ehXJZni3nU3-1" target="Ku7jBzeQ8ehXJZni3nU3-16" edge="1">
          <mxGeometry relative="1" as="geometry">
            <mxPoint x="-326.00398496240604" y="377.28195488721803" as="sourcePoint" />
          </mxGeometry>
        </mxCell>
        <mxCell id="gVrD_YZkl7RjGA8UvZqS-0" value="SWAIC Application" style="whiteSpace=wrap;html=1;fontSize=14;fontStyle=1;strokeWidth=3;" vertex="1" parent="Ku7jBzeQ8ehXJZni3nU3-1">
          <mxGeometry x="-422" y="-28" width="120" height="60" as="geometry" />
        </mxCell>
        <mxCell id="gVrD_YZkl7RjGA8UvZqS-1" value="SWAIC Application" style="whiteSpace=wrap;html=1;fontSize=14;fontStyle=1;strokeWidth=3;" vertex="1" parent="Ku7jBzeQ8ehXJZni3nU3-1">
          <mxGeometry x="-215" y="-14" width="120" height="60" as="geometry" />
        </mxCell>
      </root>
    </mxGraphModel>
  </diagram>
  <diagram name="Penalty" id="ZYolxdXYkwYUuFVxvC4L">
    <mxGraphModel dx="2212" dy="1470" grid="0" gridSize="10" guides="1" tooltips="1" connect="1" arrows="1" fold="1" page="0" pageScale="1" pageWidth="850" pageHeight="1100" math="0" shadow="0">
      <root>
        <mxCell id="IKe813ywPiGtjV3zVYJk-0" />
        <mxCell id="IKe813ywPiGtjV3zVYJk-1" parent="IKe813ywPiGtjV3zVYJk-0" />
        <mxCell id="IKe813ywPiGtjV3zVYJk-2" value="" style="edgeStyle=none;curved=1;rounded=0;orthogonalLoop=1;jettySize=auto;html=1;fontSize=12;startSize=8;endSize=8;strokeWidth=3;entryX=0;entryY=0.5;entryDx=0;entryDy=0;" edge="1" parent="IKe813ywPiGtjV3zVYJk-1" source="IKe813ywPiGtjV3zVYJk-3" target="IKe813ywPiGtjV3zVYJk-10">
          <mxGeometry relative="1" as="geometry">
            <mxPoint x="-457" y="2" as="targetPoint" />
          </mxGeometry>
        </mxCell>
        <mxCell id="IKe813ywPiGtjV3zVYJk-3" value="&lt;span&gt;&lt;font&gt;Start&lt;/font&gt;&lt;/span&gt;" style="strokeWidth=3;html=1;shape=mxgraph.flowchart.terminator;whiteSpace=wrap;fontSize=14;fontStyle=1" vertex="1" parent="IKe813ywPiGtjV3zVYJk-1">
          <mxGeometry x="-622" y="-17" width="100" height="38" as="geometry" />
        </mxCell>
        <mxCell id="IKe813ywPiGtjV3zVYJk-4" value="&lt;span&gt;End&lt;/span&gt;" style="strokeWidth=3;html=1;shape=mxgraph.flowchart.terminator;whiteSpace=wrap;fontSize=14;fontStyle=1" vertex="1" parent="IKe813ywPiGtjV3zVYJk-1">
          <mxGeometry x="289" y="-17" width="100" height="38" as="geometry" />
        </mxCell>
        <mxCell id="IKe813ywPiGtjV3zVYJk-6" value="" style="edgeStyle=none;curved=1;rounded=0;orthogonalLoop=1;jettySize=auto;html=1;fontSize=12;startSize=8;endSize=8;fontStyle=1;strokeWidth=3;entryX=0;entryY=0.5;entryDx=0;entryDy=0;" edge="1" parent="IKe813ywPiGtjV3zVYJk-1" target="_79TrXRm9NjB9rLfhbn--0">
          <mxGeometry relative="1" as="geometry">
            <mxPoint x="-339.07194244604307" y="2.0719424460430673" as="sourcePoint" />
            <mxPoint x="-222" y="2" as="targetPoint" />
          </mxGeometry>
        </mxCell>
        <mxCell id="IKe813ywPiGtjV3zVYJk-7" value="YES" style="edgeLabel;html=1;align=center;verticalAlign=middle;resizable=0;points=[];fontSize=12;fontStyle=1" vertex="1" connectable="0" parent="IKe813ywPiGtjV3zVYJk-6">
          <mxGeometry x="-0.4592" y="1" relative="1" as="geometry">
            <mxPoint as="offset" />
          </mxGeometry>
        </mxCell>
        <mxCell id="IKe813ywPiGtjV3zVYJk-8" value="" style="edgeStyle=none;curved=0;rounded=0;orthogonalLoop=1;jettySize=auto;html=1;fontSize=12;startSize=8;endSize=8;exitX=0.5;exitY=1;exitDx=0;exitDy=0;strokeWidth=3;entryX=0.5;entryY=1;entryDx=0;entryDy=0;entryPerimeter=0;" edge="1" parent="IKe813ywPiGtjV3zVYJk-1" source="IKe813ywPiGtjV3zVYJk-10" target="IKe813ywPiGtjV3zVYJk-4">
          <mxGeometry relative="1" as="geometry">
            <mxPoint x="-374.5" y="52" as="sourcePoint" />
            <mxPoint x="345" y="143" as="targetPoint" />
            <Array as="points">
              <mxPoint x="-380" y="110" />
              <mxPoint x="339" y="110" />
            </Array>
          </mxGeometry>
        </mxCell>
        <mxCell id="8EBDBjKLRw1IYjmEVVtV-0" value="&lt;b&gt;NO&lt;/b&gt;" style="edgeLabel;html=1;align=center;verticalAlign=middle;resizable=0;points=[];fontSize=12;" vertex="1" connectable="0" parent="IKe813ywPiGtjV3zVYJk-8">
          <mxGeometry x="-0.9515" y="2" relative="1" as="geometry">
            <mxPoint as="offset" />
          </mxGeometry>
        </mxCell>
        <mxCell id="IKe813ywPiGtjV3zVYJk-10" value="Is Guilty?" style="rhombus;whiteSpace=wrap;html=1;fontStyle=1;strokeWidth=3;" vertex="1" parent="IKe813ywPiGtjV3zVYJk-1">
          <mxGeometry x="-431" y="-48" width="101" height="100" as="geometry" />
        </mxCell>
        <mxCell id="WtmoLPtvU02Pc_uN39QQ-2" value="" style="edgeStyle=none;curved=1;rounded=0;orthogonalLoop=1;jettySize=auto;html=1;fontSize=12;startSize=8;endSize=8;strokeWidth=3;" edge="1" parent="IKe813ywPiGtjV3zVYJk-1" source="WtmoLPtvU02Pc_uN39QQ-0" target="WtmoLPtvU02Pc_uN39QQ-1">
          <mxGeometry relative="1" as="geometry" />
        </mxCell>
        <mxCell id="WtmoLPtvU02Pc_uN39QQ-0" value="Create Bill" style="shape=process;whiteSpace=wrap;html=1;backgroundOutline=1;fontStyle=1;strokeWidth=3;" vertex="1" parent="IKe813ywPiGtjV3zVYJk-1">
          <mxGeometry x="-50" y="-28" width="120" height="60" as="geometry" />
        </mxCell>
        <mxCell id="WtmoLPtvU02Pc_uN39QQ-3" value="" style="edgeStyle=none;curved=1;rounded=0;orthogonalLoop=1;jettySize=auto;html=1;fontSize=12;startSize=8;endSize=8;strokeWidth=3;" edge="1" parent="IKe813ywPiGtjV3zVYJk-1" source="WtmoLPtvU02Pc_uN39QQ-1" target="IKe813ywPiGtjV3zVYJk-4">
          <mxGeometry relative="1" as="geometry" />
        </mxCell>
        <mxCell id="WtmoLPtvU02Pc_uN39QQ-1" value="Payment" style="shape=process;whiteSpace=wrap;html=1;backgroundOutline=1;fontStyle=1;strokeWidth=3;" vertex="1" parent="IKe813ywPiGtjV3zVYJk-1">
          <mxGeometry x="113" y="-28" width="120" height="60" as="geometry" />
        </mxCell>
        <mxCell id="_79TrXRm9NjB9rLfhbn--1" value="" style="edgeStyle=none;curved=1;rounded=0;orthogonalLoop=1;jettySize=auto;html=1;fontSize=12;startSize=8;endSize=8;strokeWidth=3;" edge="1" parent="IKe813ywPiGtjV3zVYJk-1" source="_79TrXRm9NjB9rLfhbn--0" target="WtmoLPtvU02Pc_uN39QQ-0">
          <mxGeometry relative="1" as="geometry" />
        </mxCell>
        <mxCell id="_79TrXRm9NjB9rLfhbn--0" value="&lt;b&gt;Add Offense&lt;/b&gt;" style="rounded=0;whiteSpace=wrap;html=1;strokeWidth=3;" vertex="1" parent="IKe813ywPiGtjV3zVYJk-1">
          <mxGeometry x="-217" y="-28" width="120" height="60" as="geometry" />
        </mxCell>
      </root>
    </mxGraphModel>
  </diagram>
  <diagram name="Extend Entry" id="bcr2z2yLL83TXG5rwajy">
    <mxGraphModel dx="2212" dy="1470" grid="0" gridSize="10" guides="1" tooltips="1" connect="1" arrows="1" fold="1" page="0" pageScale="1" pageWidth="850" pageHeight="1100" math="0" shadow="0">
      <root>
        <mxCell id="7H46916KFfIbAOY4Lcfa-0" />
        <mxCell id="7H46916KFfIbAOY4Lcfa-1" parent="7H46916KFfIbAOY4Lcfa-0" />
        <mxCell id="7H46916KFfIbAOY4Lcfa-2" value="" style="edgeStyle=none;curved=1;rounded=0;orthogonalLoop=1;jettySize=auto;html=1;fontSize=12;startSize=8;endSize=8;strokeWidth=3;entryX=0;entryY=0.5;entryDx=0;entryDy=0;" edge="1" parent="7H46916KFfIbAOY4Lcfa-1" source="7H46916KFfIbAOY4Lcfa-3" target="7H46916KFfIbAOY4Lcfa-8">
          <mxGeometry relative="1" as="geometry">
            <mxPoint x="-457" y="2" as="targetPoint" />
          </mxGeometry>
        </mxCell>
        <mxCell id="7H46916KFfIbAOY4Lcfa-3" value="&lt;span&gt;&lt;font&gt;Start&lt;/font&gt;&lt;/span&gt;" style="strokeWidth=3;html=1;shape=mxgraph.flowchart.terminator;whiteSpace=wrap;fontSize=14;fontStyle=1" vertex="1" parent="7H46916KFfIbAOY4Lcfa-1">
          <mxGeometry x="-622" y="-17" width="100" height="38" as="geometry" />
        </mxCell>
        <mxCell id="7H46916KFfIbAOY4Lcfa-4" value="&lt;span&gt;End&lt;/span&gt;" style="strokeWidth=3;html=1;shape=mxgraph.flowchart.terminator;whiteSpace=wrap;fontSize=14;fontStyle=1" vertex="1" parent="7H46916KFfIbAOY4Lcfa-1">
          <mxGeometry x="242" y="-17" width="100" height="38" as="geometry" />
        </mxCell>
        <mxCell id="7H46916KFfIbAOY4Lcfa-5" value="" style="edgeStyle=none;curved=1;rounded=0;orthogonalLoop=1;jettySize=auto;html=1;fontSize=12;startSize=8;endSize=8;fontStyle=1;strokeWidth=3;entryX=0;entryY=0.5;entryDx=0;entryDy=0;exitX=1;exitY=0.5;exitDx=0;exitDy=0;" edge="1" parent="7H46916KFfIbAOY4Lcfa-1" target="7H46916KFfIbAOY4Lcfa-10" source="7H46916KFfIbAOY4Lcfa-8">
          <mxGeometry relative="1" as="geometry">
            <mxPoint x="-339.07194244604307" y="2.0719424460430673" as="sourcePoint" />
            <mxPoint x="-257" y="2" as="targetPoint" />
          </mxGeometry>
        </mxCell>
        <mxCell id="7H46916KFfIbAOY4Lcfa-6" value="YES" style="edgeLabel;html=1;align=center;verticalAlign=middle;resizable=0;points=[];fontSize=12;fontStyle=1" vertex="1" connectable="0" parent="7H46916KFfIbAOY4Lcfa-5">
          <mxGeometry x="-0.4592" y="1" relative="1" as="geometry">
            <mxPoint as="offset" />
          </mxGeometry>
        </mxCell>
        <mxCell id="7H46916KFfIbAOY4Lcfa-7" value="" style="edgeStyle=none;curved=0;rounded=0;orthogonalLoop=1;jettySize=auto;html=1;fontSize=12;startSize=8;endSize=8;exitX=0.5;exitY=1;exitDx=0;exitDy=0;strokeWidth=3;entryX=0.5;entryY=1;entryDx=0;entryDy=0;entryPerimeter=0;" edge="1" parent="7H46916KFfIbAOY4Lcfa-1" target="7H46916KFfIbAOY4Lcfa-4">
          <mxGeometry relative="1" as="geometry">
            <mxPoint x="-394.5" y="52" as="sourcePoint" />
            <mxPoint x="283" y="21" as="targetPoint" />
            <Array as="points">
              <mxPoint x="-394" y="107" />
              <mxPoint x="-51" y="107" />
              <mxPoint x="292" y="110" />
            </Array>
          </mxGeometry>
        </mxCell>
        <mxCell id="h4Jk-3pOGq-62a0W_Lke-6" value="&lt;b&gt;NO&lt;/b&gt;" style="edgeLabel;html=1;align=center;verticalAlign=middle;resizable=0;points=[];fontSize=12;" vertex="1" connectable="0" parent="7H46916KFfIbAOY4Lcfa-7">
          <mxGeometry x="-0.9469" y="-2" relative="1" as="geometry">
            <mxPoint as="offset" />
          </mxGeometry>
        </mxCell>
        <mxCell id="7H46916KFfIbAOY4Lcfa-8" value="Extend Days?" style="rhombus;whiteSpace=wrap;html=1;fontStyle=1;strokeWidth=3;" vertex="1" parent="7H46916KFfIbAOY4Lcfa-1">
          <mxGeometry x="-445" y="-48" width="101" height="100" as="geometry" />
        </mxCell>
        <mxCell id="7H46916KFfIbAOY4Lcfa-9" value="" style="edgeStyle=none;curved=1;rounded=0;orthogonalLoop=1;jettySize=auto;html=1;fontSize=12;startSize=8;endSize=8;strokeWidth=3;" edge="1" parent="7H46916KFfIbAOY4Lcfa-1" source="7H46916KFfIbAOY4Lcfa-10" target="7H46916KFfIbAOY4Lcfa-12">
          <mxGeometry relative="1" as="geometry" />
        </mxCell>
        <mxCell id="7H46916KFfIbAOY4Lcfa-10" value="Create Bill" style="shape=process;whiteSpace=wrap;html=1;backgroundOutline=1;fontStyle=1;strokeWidth=3;" vertex="1" parent="7H46916KFfIbAOY4Lcfa-1">
          <mxGeometry x="-248" y="-28" width="120" height="60" as="geometry" />
        </mxCell>
        <mxCell id="h4Jk-3pOGq-62a0W_Lke-8" value="" style="edgeStyle=none;curved=1;rounded=0;orthogonalLoop=1;jettySize=auto;html=1;fontSize=12;startSize=8;endSize=8;strokeWidth=3;" edge="1" parent="7H46916KFfIbAOY4Lcfa-1" source="7H46916KFfIbAOY4Lcfa-12" target="h4Jk-3pOGq-62a0W_Lke-7">
          <mxGeometry relative="1" as="geometry" />
        </mxCell>
        <mxCell id="7H46916KFfIbAOY4Lcfa-12" value="Payment" style="shape=process;whiteSpace=wrap;html=1;backgroundOutline=1;fontStyle=1;strokeWidth=3;" vertex="1" parent="7H46916KFfIbAOY4Lcfa-1">
          <mxGeometry x="-85" y="-28" width="120" height="60" as="geometry" />
        </mxCell>
        <mxCell id="h4Jk-3pOGq-62a0W_Lke-9" value="" style="edgeStyle=none;curved=1;rounded=0;orthogonalLoop=1;jettySize=auto;html=1;fontSize=12;startSize=8;endSize=8;strokeWidth=3;" edge="1" parent="7H46916KFfIbAOY4Lcfa-1" source="h4Jk-3pOGq-62a0W_Lke-7" target="7H46916KFfIbAOY4Lcfa-4">
          <mxGeometry relative="1" as="geometry" />
        </mxCell>
        <mxCell id="h4Jk-3pOGq-62a0W_Lke-7" value="Update Permit" style="shape=cylinder3;whiteSpace=wrap;html=1;boundedLbl=1;backgroundOutline=1;size=15;fontStyle=1;strokeWidth=3;" vertex="1" parent="7H46916KFfIbAOY4Lcfa-1">
          <mxGeometry x="98" y="-30.5" width="91" height="65" as="geometry" />
        </mxCell>
      </root>
    </mxGraphModel>
  </diagram>
  <diagram name="Add Activity" id="Hg47gG9dtz2kHgNQbsno">
    <mxGraphModel dx="2212" dy="1470" grid="0" gridSize="10" guides="1" tooltips="1" connect="1" arrows="1" fold="1" page="0" pageScale="1" pageWidth="850" pageHeight="1100" math="0" shadow="0">
      <root>
        <mxCell id="A2Az5Ti9mB2Ou6Sfxvx6-0" />
        <mxCell id="A2Az5Ti9mB2Ou6Sfxvx6-1" parent="A2Az5Ti9mB2Ou6Sfxvx6-0" />
        <mxCell id="A2Az5Ti9mB2Ou6Sfxvx6-2" value="" style="edgeStyle=none;curved=1;rounded=0;orthogonalLoop=1;jettySize=auto;html=1;fontSize=12;startSize=8;endSize=8;strokeWidth=3;entryX=0;entryY=0.5;entryDx=0;entryDy=0;" edge="1" parent="A2Az5Ti9mB2Ou6Sfxvx6-1" source="A2Az5Ti9mB2Ou6Sfxvx6-3" target="A2Az5Ti9mB2Ou6Sfxvx6-9">
          <mxGeometry relative="1" as="geometry">
            <mxPoint x="-457" y="2" as="targetPoint" />
          </mxGeometry>
        </mxCell>
        <mxCell id="A2Az5Ti9mB2Ou6Sfxvx6-3" value="&lt;span&gt;&lt;font&gt;Start&lt;/font&gt;&lt;/span&gt;" style="strokeWidth=3;html=1;shape=mxgraph.flowchart.terminator;whiteSpace=wrap;fontSize=14;fontStyle=1" vertex="1" parent="A2Az5Ti9mB2Ou6Sfxvx6-1">
          <mxGeometry x="-622" y="-17" width="100" height="38" as="geometry" />
        </mxCell>
        <mxCell id="A2Az5Ti9mB2Ou6Sfxvx6-4" value="&lt;span&gt;End&lt;/span&gt;" style="strokeWidth=3;html=1;shape=mxgraph.flowchart.terminator;whiteSpace=wrap;fontSize=14;fontStyle=1" vertex="1" parent="A2Az5Ti9mB2Ou6Sfxvx6-1">
          <mxGeometry x="242" y="-17" width="100" height="38" as="geometry" />
        </mxCell>
        <mxCell id="A2Az5Ti9mB2Ou6Sfxvx6-5" value="" style="edgeStyle=none;curved=1;rounded=0;orthogonalLoop=1;jettySize=auto;html=1;fontSize=12;startSize=8;endSize=8;fontStyle=1;strokeWidth=3;entryX=0;entryY=0.5;entryDx=0;entryDy=0;exitX=1;exitY=0.5;exitDx=0;exitDy=0;" edge="1" parent="A2Az5Ti9mB2Ou6Sfxvx6-1" source="A2Az5Ti9mB2Ou6Sfxvx6-9" target="A2Az5Ti9mB2Ou6Sfxvx6-11">
          <mxGeometry relative="1" as="geometry">
            <mxPoint x="-339.07194244604307" y="2.0719424460430673" as="sourcePoint" />
            <mxPoint x="-257" y="2" as="targetPoint" />
          </mxGeometry>
        </mxCell>
        <mxCell id="A2Az5Ti9mB2Ou6Sfxvx6-6" value="YES" style="edgeLabel;html=1;align=center;verticalAlign=middle;resizable=0;points=[];fontSize=12;fontStyle=1" vertex="1" connectable="0" parent="A2Az5Ti9mB2Ou6Sfxvx6-5">
          <mxGeometry x="-0.4592" y="1" relative="1" as="geometry">
            <mxPoint as="offset" />
          </mxGeometry>
        </mxCell>
        <mxCell id="A2Az5Ti9mB2Ou6Sfxvx6-7" value="" style="edgeStyle=none;curved=0;rounded=0;orthogonalLoop=1;jettySize=auto;html=1;fontSize=12;startSize=8;endSize=8;exitX=0.5;exitY=1;exitDx=0;exitDy=0;strokeWidth=3;entryX=0.5;entryY=1;entryDx=0;entryDy=0;entryPerimeter=0;" edge="1" parent="A2Az5Ti9mB2Ou6Sfxvx6-1" target="A2Az5Ti9mB2Ou6Sfxvx6-4">
          <mxGeometry relative="1" as="geometry">
            <mxPoint x="-394.5" y="52" as="sourcePoint" />
            <mxPoint x="283" y="21" as="targetPoint" />
            <Array as="points">
              <mxPoint x="-394" y="107" />
              <mxPoint x="-51" y="107" />
              <mxPoint x="292" y="110" />
            </Array>
          </mxGeometry>
        </mxCell>
        <mxCell id="A2Az5Ti9mB2Ou6Sfxvx6-8" value="&lt;b&gt;NO&lt;/b&gt;" style="edgeLabel;html=1;align=center;verticalAlign=middle;resizable=0;points=[];fontSize=12;" vertex="1" connectable="0" parent="A2Az5Ti9mB2Ou6Sfxvx6-7">
          <mxGeometry x="-0.9469" y="-2" relative="1" as="geometry">
            <mxPoint as="offset" />
          </mxGeometry>
        </mxCell>
        <mxCell id="A2Az5Ti9mB2Ou6Sfxvx6-9" value="Add Activity?" style="rhombus;whiteSpace=wrap;html=1;fontStyle=1;strokeWidth=3;" vertex="1" parent="A2Az5Ti9mB2Ou6Sfxvx6-1">
          <mxGeometry x="-445" y="-48" width="101" height="100" as="geometry" />
        </mxCell>
        <mxCell id="A2Az5Ti9mB2Ou6Sfxvx6-10" value="" style="edgeStyle=none;curved=1;rounded=0;orthogonalLoop=1;jettySize=auto;html=1;fontSize=12;startSize=8;endSize=8;strokeWidth=3;" edge="1" parent="A2Az5Ti9mB2Ou6Sfxvx6-1" source="A2Az5Ti9mB2Ou6Sfxvx6-11" target="A2Az5Ti9mB2Ou6Sfxvx6-13">
          <mxGeometry relative="1" as="geometry" />
        </mxCell>
        <mxCell id="A2Az5Ti9mB2Ou6Sfxvx6-11" value="Create Bill" style="shape=process;whiteSpace=wrap;html=1;backgroundOutline=1;fontStyle=1;strokeWidth=3;" vertex="1" parent="A2Az5Ti9mB2Ou6Sfxvx6-1">
          <mxGeometry x="-248" y="-28" width="120" height="60" as="geometry" />
        </mxCell>
        <mxCell id="A2Az5Ti9mB2Ou6Sfxvx6-12" value="" style="edgeStyle=none;curved=1;rounded=0;orthogonalLoop=1;jettySize=auto;html=1;fontSize=12;startSize=8;endSize=8;strokeWidth=3;" edge="1" parent="A2Az5Ti9mB2Ou6Sfxvx6-1" source="A2Az5Ti9mB2Ou6Sfxvx6-13" target="A2Az5Ti9mB2Ou6Sfxvx6-15">
          <mxGeometry relative="1" as="geometry" />
        </mxCell>
        <mxCell id="A2Az5Ti9mB2Ou6Sfxvx6-13" value="Payment" style="shape=process;whiteSpace=wrap;html=1;backgroundOutline=1;fontStyle=1;strokeWidth=3;" vertex="1" parent="A2Az5Ti9mB2Ou6Sfxvx6-1">
          <mxGeometry x="-85" y="-28" width="120" height="60" as="geometry" />
        </mxCell>
        <mxCell id="A2Az5Ti9mB2Ou6Sfxvx6-14" value="" style="edgeStyle=none;curved=1;rounded=0;orthogonalLoop=1;jettySize=auto;html=1;fontSize=12;startSize=8;endSize=8;strokeWidth=3;" edge="1" parent="A2Az5Ti9mB2Ou6Sfxvx6-1" source="A2Az5Ti9mB2Ou6Sfxvx6-15" target="A2Az5Ti9mB2Ou6Sfxvx6-4">
          <mxGeometry relative="1" as="geometry" />
        </mxCell>
        <mxCell id="A2Az5Ti9mB2Ou6Sfxvx6-15" value="Update Permit" style="shape=cylinder3;whiteSpace=wrap;html=1;boundedLbl=1;backgroundOutline=1;size=15;fontStyle=1;strokeWidth=3;" vertex="1" parent="A2Az5Ti9mB2Ou6Sfxvx6-1">
          <mxGeometry x="98" y="-30.5" width="91" height="65" as="geometry" />
        </mxCell>
      </root>
    </mxGraphModel>
  </diagram>
  <diagram name="Checkout" id="jEDTZuRrfP8-jd-UmYiZ">
    <mxGraphModel dx="2212" dy="1470" grid="0" gridSize="10" guides="1" tooltips="1" connect="1" arrows="1" fold="1" page="0" pageScale="1" pageWidth="850" pageHeight="1100" math="0" shadow="0">
      <root>
        <mxCell id="Z0kxm7jUbY-7L649ea2a-0" />
        <mxCell id="Z0kxm7jUbY-7L649ea2a-1" parent="Z0kxm7jUbY-7L649ea2a-0" />
        <mxCell id="Z0kxm7jUbY-7L649ea2a-2" value="" style="edgeStyle=none;curved=1;rounded=0;orthogonalLoop=1;jettySize=auto;html=1;fontSize=12;startSize=8;endSize=8;strokeWidth=3;entryX=0;entryY=0.5;entryDx=0;entryDy=0;" edge="1" parent="Z0kxm7jUbY-7L649ea2a-1" source="Z0kxm7jUbY-7L649ea2a-3" target="Z0kxm7jUbY-7L649ea2a-9">
          <mxGeometry relative="1" as="geometry">
            <mxPoint x="-457" y="2" as="targetPoint" />
          </mxGeometry>
        </mxCell>
        <mxCell id="Z0kxm7jUbY-7L649ea2a-3" value="&lt;span&gt;&lt;font&gt;Start&lt;/font&gt;&lt;/span&gt;" style="strokeWidth=3;html=1;shape=mxgraph.flowchart.terminator;whiteSpace=wrap;fontSize=14;fontStyle=1" vertex="1" parent="Z0kxm7jUbY-7L649ea2a-1">
          <mxGeometry x="-622" y="-17" width="100" height="38" as="geometry" />
        </mxCell>
        <mxCell id="Z0kxm7jUbY-7L649ea2a-4" value="&lt;span&gt;End&lt;/span&gt;" style="strokeWidth=3;html=1;shape=mxgraph.flowchart.terminator;whiteSpace=wrap;fontSize=14;fontStyle=1" vertex="1" parent="Z0kxm7jUbY-7L649ea2a-1">
          <mxGeometry x="242" y="-17" width="100" height="38" as="geometry" />
        </mxCell>
        <mxCell id="Z0kxm7jUbY-7L649ea2a-5" value="" style="edgeStyle=none;curved=1;rounded=0;orthogonalLoop=1;jettySize=auto;html=1;fontSize=12;startSize=8;endSize=8;fontStyle=1;strokeWidth=3;entryX=0;entryY=0.5;entryDx=0;entryDy=0;exitX=1;exitY=0.5;exitDx=0;exitDy=0;" edge="1" parent="Z0kxm7jUbY-7L649ea2a-1" source="Z0kxm7jUbY-7L649ea2a-9" target="qt9niYdmTO3wC_0AnLm0-2">
          <mxGeometry relative="1" as="geometry">
            <mxPoint x="-339.07194244604307" y="2.0719424460430673" as="sourcePoint" />
            <mxPoint x="-248" y="2" as="targetPoint" />
          </mxGeometry>
        </mxCell>
        <mxCell id="Z0kxm7jUbY-7L649ea2a-6" value="NO" style="edgeLabel;html=1;align=center;verticalAlign=middle;resizable=0;points=[];fontSize=12;fontStyle=1" vertex="1" connectable="0" parent="Z0kxm7jUbY-7L649ea2a-5">
          <mxGeometry x="-0.4592" y="1" relative="1" as="geometry">
            <mxPoint as="offset" />
          </mxGeometry>
        </mxCell>
        <mxCell id="qt9niYdmTO3wC_0AnLm0-7" value="" style="edgeStyle=none;curved=0;rounded=0;orthogonalLoop=1;jettySize=auto;html=1;fontSize=12;startSize=8;endSize=8;entryX=0;entryY=0.5;entryDx=0;entryDy=0;exitX=0.5;exitY=1;exitDx=0;exitDy=0;strokeWidth=3;" edge="1" parent="Z0kxm7jUbY-7L649ea2a-1" source="Z0kxm7jUbY-7L649ea2a-9" target="qt9niYdmTO3wC_0AnLm0-3">
          <mxGeometry relative="1" as="geometry">
            <mxPoint x="-394.5" y="192" as="targetPoint" />
            <Array as="points">
              <mxPoint x="-394" y="140" />
            </Array>
          </mxGeometry>
        </mxCell>
        <mxCell id="qt9niYdmTO3wC_0AnLm0-8" value="&lt;b&gt;YES&lt;/b&gt;" style="edgeLabel;html=1;align=center;verticalAlign=middle;resizable=0;points=[];fontSize=12;" vertex="1" connectable="0" parent="qt9niYdmTO3wC_0AnLm0-7">
          <mxGeometry x="-0.7801" y="1" relative="1" as="geometry">
            <mxPoint as="offset" />
          </mxGeometry>
        </mxCell>
        <mxCell id="Z0kxm7jUbY-7L649ea2a-9" value="Overstay?" style="rhombus;whiteSpace=wrap;html=1;fontStyle=1;strokeWidth=3;" vertex="1" parent="Z0kxm7jUbY-7L649ea2a-1">
          <mxGeometry x="-445" y="-48" width="101" height="100" as="geometry" />
        </mxCell>
        <mxCell id="qt9niYdmTO3wC_0AnLm0-0" value="" style="edgeStyle=none;curved=1;rounded=0;orthogonalLoop=1;jettySize=auto;html=1;fontSize=12;startSize=8;endSize=8;fontStyle=1;strokeWidth=3;entryX=0;entryY=0.5;entryDx=0;entryDy=0;exitX=1;exitY=0.5;exitDx=0;exitDy=0;" edge="1" parent="Z0kxm7jUbY-7L649ea2a-1" source="qt9niYdmTO3wC_0AnLm0-2" target="qt9niYdmTO3wC_0AnLm0-9">
          <mxGeometry relative="1" as="geometry">
            <mxPoint x="-139.07194244604307" y="2.0719424460430673" as="sourcePoint" />
            <mxPoint x="-48" y="2" as="targetPoint" />
          </mxGeometry>
        </mxCell>
        <mxCell id="qt9niYdmTO3wC_0AnLm0-1" value="NO" style="edgeLabel;html=1;align=center;verticalAlign=middle;resizable=0;points=[];fontSize=12;fontStyle=1" vertex="1" connectable="0" parent="qt9niYdmTO3wC_0AnLm0-0">
          <mxGeometry x="-0.4592" y="1" relative="1" as="geometry">
            <mxPoint as="offset" />
          </mxGeometry>
        </mxCell>
        <mxCell id="qt9niYdmTO3wC_0AnLm0-4" value="" style="edgeStyle=none;curved=1;rounded=0;orthogonalLoop=1;jettySize=auto;html=1;fontSize=12;startSize=8;endSize=8;strokeWidth=3;" edge="1" parent="Z0kxm7jUbY-7L649ea2a-1" source="qt9niYdmTO3wC_0AnLm0-2" target="qt9niYdmTO3wC_0AnLm0-3">
          <mxGeometry relative="1" as="geometry" />
        </mxCell>
        <mxCell id="qt9niYdmTO3wC_0AnLm0-5" value="&lt;b&gt;YES&lt;/b&gt;" style="edgeLabel;html=1;align=center;verticalAlign=middle;resizable=0;points=[];fontSize=12;" vertex="1" connectable="0" parent="qt9niYdmTO3wC_0AnLm0-4">
          <mxGeometry x="-0.3091" y="1" relative="1" as="geometry">
            <mxPoint as="offset" />
          </mxGeometry>
        </mxCell>
        <mxCell id="qt9niYdmTO3wC_0AnLm0-2" value="Has Offense?" style="rhombus;whiteSpace=wrap;html=1;fontStyle=1;strokeWidth=3;" vertex="1" parent="Z0kxm7jUbY-7L649ea2a-1">
          <mxGeometry x="-245" y="-48" width="101" height="100" as="geometry" />
        </mxCell>
        <mxCell id="qt9niYdmTO3wC_0AnLm0-10" value="" style="edgeStyle=none;curved=0;rounded=0;orthogonalLoop=1;jettySize=auto;html=1;fontSize=12;startSize=8;endSize=8;exitX=1;exitY=0.5;exitDx=0;exitDy=0;entryX=0.5;entryY=1;entryDx=0;entryDy=0;entryPerimeter=0;fontStyle=0;strokeWidth=3;" edge="1" parent="Z0kxm7jUbY-7L649ea2a-1" source="qt9niYdmTO3wC_0AnLm0-3" target="Z0kxm7jUbY-7L649ea2a-4">
          <mxGeometry relative="1" as="geometry">
            <Array as="points">
              <mxPoint x="292" y="138" />
            </Array>
          </mxGeometry>
        </mxCell>
        <mxCell id="qt9niYdmTO3wC_0AnLm0-3" value="&lt;b&gt;Penalty&lt;/b&gt;" style="shape=process;whiteSpace=wrap;html=1;backgroundOutline=1;strokeWidth=3;" vertex="1" parent="Z0kxm7jUbY-7L649ea2a-1">
          <mxGeometry x="-254.5" y="110" width="120" height="60" as="geometry" />
        </mxCell>
        <mxCell id="qt9niYdmTO3wC_0AnLm0-11" value="" style="edgeStyle=none;curved=1;rounded=0;orthogonalLoop=1;jettySize=auto;html=1;fontSize=12;startSize=8;endSize=8;strokeWidth=3;" edge="1" parent="Z0kxm7jUbY-7L649ea2a-1" source="qt9niYdmTO3wC_0AnLm0-9" target="Z0kxm7jUbY-7L649ea2a-4">
          <mxGeometry relative="1" as="geometry" />
        </mxCell>
        <mxCell id="qt9niYdmTO3wC_0AnLm0-9" value="Checkout" style="whiteSpace=wrap;html=1;strokeWidth=3;" vertex="1" parent="Z0kxm7jUbY-7L649ea2a-1">
          <mxGeometry x="-19" y="-28" width="120" height="60" as="geometry" />
        </mxCell>
      </root>
    </mxGraphModel>
  </diagram>
</mxfile>
